<svg width="64" height="64" viewBox="0 0 64 64" fill="none" xmlns="http://www.w3.org/2000/svg">
<path d="M51.5965 31.6588C50.927 32.128 50.2224 32.4897 49.4923 32.8494C45.987 34.2456 42.0646 33.676 39.1309 31.344C41.2595 31.2987 43.3973 31.3556 45.525 31.3556C46.6787 31.3556 47.8323 31.3556 48.9861 31.3556C49.9898 31.3556 51.0034 31.319 52.0093 31.3425C51.8755 31.4528 51.7387 31.559 51.5965 31.6588ZM45.5546 15.422C47.3206 19.9545 49.0917 24.4851 50.8554 29.0185C47.3216 29.0185 43.788 29.0185 40.2542 29.0185C42.0205 24.486 43.7864 19.9536 45.5546 15.422ZM32 14.08C30.9397 14.08 30.08 13.2203 30.08 12.16C30.08 11.0996 30.9397 10.24 32 10.24C33.0603 10.24 33.92 11.0996 33.92 12.16C33.92 13.2203 33.0603 14.08 32 14.08ZM36.747 48.0227C37.3427 48.0227 37.9384 48.0227 38.5341 48.0227C38.6642 48.0227 38.7944 48.0211 38.9245 48.0227C39.3014 48.0273 39.6622 48.1025 39.9221 48.2353C40.4406 48.5003 40.7794 48.8283 41.0328 49.3784C41.04 49.3992 41.071 49.4758 41.0746 49.4864C41.1002 49.5632 41.1242 49.6408 41.1446 49.7192C41.2115 49.976 41.1966 49.8681 41.209 50.0896C41.2163 50.224 41.2147 50.3585 41.2147 50.4931C41.2147 51.262 41.2077 52.0313 41.2147 52.8003C41.2181 53.1587 40.9578 53.3868 40.616 53.3988C37.8634 53.3988 35.1106 53.3988 32.3576 53.3988C29.3739 53.3988 26.3901 53.4084 23.4064 53.3988C23.3658 53.3988 23.3245 53.3988 23.2838 53.3966C23.3544 53.3931 23.0627 53.3028 23.1064 53.3372C23.0488 53.3049 22.9946 53.2675 22.9382 53.2328C23.089 53.3257 22.8453 53.082 22.9382 53.2328C22.8973 53.1664 22.8522 53.1064 22.8168 53.0358C22.8117 53.0193 22.8061 53.002 22.7989 52.9785C22.7814 52.9222 22.7717 52.9025 22.7666 52.8972C22.769 52.8852 22.7715 52.8571 22.7722 52.7961C22.7731 52.6772 22.7722 52.5585 22.7722 52.4396C22.7722 51.6246 22.701 50.776 22.7872 49.9641C22.8352 49.5128 23.0947 48.9968 23.5186 48.6016C23.8786 48.2656 24.4187 48.044 24.9021 48.0249C25.2107 48.0129 25.5213 48.0227 25.8299 48.0227C29.469 48.0227 33.108 48.0227 36.747 48.0227ZM22.8176 53.038C22.8626 53.1796 22.8363 53.0784 22.8176 53.038ZM23.7056 29.0185C20.1718 29.0185 16.6382 29.0185 13.1045 29.0185C14.8707 24.486 16.6366 19.9536 18.4048 15.422C20.1709 19.9545 21.9419 24.4851 23.7056 29.0185ZM24.8595 31.3425C24.7258 31.4528 24.589 31.559 24.4467 31.6588C23.7773 32.128 23.0726 32.4897 22.3427 32.8494C18.8374 34.2456 14.9149 33.676 11.9811 31.344C14.1098 31.2987 16.2475 31.3556 18.3752 31.3556C19.529 31.3556 20.6826 31.3556 21.8363 31.3556C22.84 31.3556 23.8536 31.319 24.8595 31.3425ZM53.3562 29.0166C51.3317 23.823 49.3056 18.63 47.2818 13.4361C47.2648 13.3926 47.2483 13.348 47.2318 13.3036C47.8918 13.3036 48.5518 13.3036 49.2118 13.3036C51.0528 13.3036 52.9045 13.3584 54.7448 13.3036C54.771 13.3028 54.7973 13.3036 54.8235 13.3036C56.3909 13.3036 56.3934 11.0265 54.8235 11.0265C53.305 11.0265 51.7864 11.0265 50.2678 11.0265C46.6384 11.0265 43.0091 11.0265 39.3797 11.0265C38.2477 11.0265 37.1157 11.0265 35.9837 11.0265C35.6134 9.75996 34.6802 8.72653 33.3912 8.24348C31.827 7.6574 29.92 8.15756 28.8485 9.43996C28.4542 9.91164 28.1731 10.4548 28.0088 11.0265C27.3944 11.0265 26.78 11.0265 26.1656 11.0265C22.3731 11.0265 18.5808 11.0265 14.7883 11.0265C12.9474 11.0265 11.0955 10.9718 9.2552 11.0265C9.22912 11.0273 9.20272 11.0265 9.17648 11.0265C7.60912 11.0265 7.60656 13.3036 9.17648 13.3036C10.695 13.3036 12.2136 13.3036 13.7322 13.3036C14.7357 13.3036 15.7392 13.3036 16.7427 13.3036C15.829 15.6478 14.9155 17.9921 13.9984 20.335C12.8659 23.2281 11.7326 26.1208 10.6053 29.0158C9.8376 28.9908 8.79872 28.8176 8.29776 29.4988C7.77168 30.2147 8.29424 30.9012 8.76864 31.4601C9.97632 32.8828 11.5048 34.0451 13.2016 34.8225C16.7514 36.4491 20.9757 36.296 24.4091 34.4377C25.3565 33.9249 26.2376 33.2865 27.0261 32.5531C27.441 32.1668 27.8299 31.7532 28.1893 31.315C28.4813 30.9587 28.7509 30.668 28.7722 30.187C28.7736 30.1547 28.7685 30.1265 28.7597 30.1012C28.5669 28.8137 27.2242 28.9958 26.2064 29.0166C24.1818 23.823 22.1558 18.63 20.132 13.4361C20.115 13.3926 20.0986 13.348 20.0821 13.3036C21.5949 13.3036 23.1075 13.3036 24.6203 13.3036C25.7438 13.3036 26.8675 13.3036 27.991 13.3036C28.0832 13.6355 28.2166 13.9596 28.3971 14.2678C28.9531 15.2171 29.849 15.8707 30.8614 16.156C30.8614 18.7328 30.8614 21.3097 30.8614 23.8865C30.8614 27.1344 30.8614 30.3822 30.8614 33.63C30.8614 36.4254 30.8614 39.2206 30.8614 42.0158C30.8614 43.2558 30.821 44.5044 30.8515 45.7454C29.6026 45.7454 28.3534 45.7454 27.1043 45.7454C25.5821 45.7454 23.9483 45.5748 22.6056 46.4481C21.2589 47.324 20.5024 48.7808 20.4949 50.3785C20.4912 51.1843 20.4702 51.995 20.4949 52.8003C20.5448 54.4206 21.7986 55.6377 23.411 55.6761C23.7763 55.6848 24.1429 55.6761 24.5083 55.6761C26.2816 55.6761 28.0549 55.6761 29.8282 55.6761C33.3578 55.6761 36.8875 55.6761 40.4171 55.6761C40.4834 55.6761 40.5498 55.6761 40.616 55.6761C40.6856 55.6761 40.7507 55.6694 40.8136 55.6596C42.4442 55.5054 43.4918 54.1856 43.4918 52.5608C43.4918 51.683 43.5603 50.7761 43.471 49.9016C43.2851 48.0792 42.0965 46.5601 40.3565 45.967C39.7291 45.7532 39.0784 45.7454 38.4267 45.7454C36.664 45.7454 34.9013 45.7454 33.1386 45.7454C33.1386 44.7713 33.1386 43.7971 33.1386 42.8228C33.1386 40.1524 33.1386 37.4819 33.1386 34.8115C33.1386 31.5636 33.1386 28.3158 33.1386 25.068C33.1386 22.2726 33.1386 19.4774 33.1386 16.682C33.1386 16.5116 33.1403 16.3409 33.1416 16.1702C34.5363 15.7856 35.5802 14.6587 35.9806 13.3036C36.5986 13.3036 37.2165 13.3036 37.8344 13.3036C39.8538 13.3036 41.8731 13.3036 43.8926 13.3036C42.9787 15.6478 42.0653 17.9921 41.1482 20.335C40.0157 23.2281 38.8824 26.1208 37.755 29.0158C36.9874 28.9908 35.9485 28.8174 35.4475 29.4988C34.9214 30.2147 35.444 30.9011 35.9184 31.4601C37.1261 32.8828 38.6546 34.0451 40.3514 34.8225C43.9011 36.4491 48.1254 36.296 51.5589 34.4377C52.5062 33.9249 53.3875 33.2865 54.1758 32.5531C54.5909 32.1668 54.9797 31.7532 55.339 31.315C55.631 30.9587 55.9008 30.668 55.9219 30.187C55.9234 30.1547 55.9182 30.1264 55.9094 30.1012C55.7165 28.8137 54.3741 28.9958 53.3562 29.0166Z" />
</svg>
