<svg width="64" height="64" viewBox="0 0 64 64" fill="none" xmlns="http://www.w3.org/2000/svg">
<path d="M24.7654 18.4095C25.8253 18.4364 26.7061 19.274 26.7086 20.3529C26.7114 21.4098 25.8224 22.2989 24.7654 22.2962C23.7067 22.2936 22.822 21.4135 22.822 20.3529C22.822 19.274 23.7075 18.4364 24.7654 18.4095ZM24.7654 24.1778C26.3829 24.1493 27.8156 23.1524 28.3714 21.6258C28.9087 20.1497 28.4237 18.4199 27.2174 17.4217C25.9703 16.3897 24.158 16.2346 22.7713 17.0899C21.4212 17.9227 20.7311 19.5093 21.0083 21.0644C21.3301 22.8694 22.9647 24.1461 24.7654 24.1778Z" />
<path d="M20.206 31.2799C19.8664 31.2799 19.5269 31.2799 19.1872 31.2799C19.5363 29.2738 20.9817 27.5422 22.928 26.8817C25.0331 26.1673 27.3827 26.7689 28.8948 28.3948C29.639 29.1948 30.1303 30.2068 30.3146 31.2799C26.9453 31.2799 23.5756 31.2799 20.206 31.2799ZM27.596 25.2581C24.3893 23.9377 20.6585 25.066 18.6333 27.8523C17.5819 29.2989 17.2258 30.9654 17.2258 32.7233C17.2258 32.9603 17.4266 33.1616 17.664 33.1616C21.8121 33.1616 25.9602 33.1616 30.1084 33.1616C30.6845 33.1616 31.2607 33.1616 31.8369 33.1616C31.9653 33.1616 32.0632 33.1147 32.1333 33.0443L32.148 33.0304L32.1562 33.0217C32.2276 32.9516 32.2751 32.8531 32.2751 32.7233C32.2751 31.1877 32.0218 29.7314 31.2268 28.3925C30.3924 26.9871 29.1059 25.88 27.596 25.2581Z" />
<path d="M53.9311 49.2525C53.9282 49.3183 53.93 49.3842 53.9257 49.4498C53.9217 49.3938 53.8243 49.8253 53.8686 49.7156C53.7996 49.8861 53.7218 49.9992 53.6424 50.0908C52.6328 51.1943 51.6417 52.3183 50.6121 53.4031C50.0792 53.9645 49.3716 54.01 48.8156 53.5094C48.5009 53.226 48.1905 52.9376 47.8781 52.6517C45.0505 50.0648 42.223 47.478 39.3954 44.8911C38.972 44.5037 38.5485 44.1163 38.1252 43.729C38.0508 43.661 37.9751 43.5944 37.9021 43.5249C37.5553 43.1945 37.4169 42.8193 37.4658 42.4288C37.498 42.1716 37.6013 41.9727 37.8022 41.7369C38.8181 40.6265 39.8341 39.516 40.8501 38.4054L40.8783 38.3759C40.9117 38.3425 40.934 38.3196 40.9497 38.3029C40.9572 38.2986 40.9683 38.2912 40.9858 38.2785C41.0163 38.2567 41.2254 38.1393 41.2144 38.1371C41.3366 38.0864 41.4725 38.048 41.6035 38.0296C41.5256 38.0479 42.0087 38.0527 41.8568 38.0294C42.1604 38.076 42.328 38.1555 42.525 38.3206C42.7544 38.5127 42.9688 38.7267 43.1897 38.9286C44.4699 40.0999 45.75 41.2711 47.0302 42.4422C48.532 43.8162 50.0339 45.1902 51.5357 46.5642C52.0365 47.0225 52.5372 47.4806 53.038 47.9387C53.3474 48.2216 53.6533 48.4565 53.8164 48.7747C53.8272 48.8004 53.8532 48.8587 53.8557 48.866C53.886 48.9548 53.9095 49.0472 53.9261 49.1396C53.9297 49.1592 53.9326 49.171 53.935 49.1786C53.9337 49.1977 53.9324 49.2208 53.9311 49.2525ZM36.8741 39.6487C36.5092 39.3149 36.1443 38.9809 35.7793 38.6471C36.389 37.9807 36.9987 37.3144 37.6084 36.6479C37.9723 36.9809 38.3363 37.3139 38.7002 37.6467C38.591 37.7686 38.4819 37.8913 38.3708 38.0126C37.8719 38.558 37.3729 39.1033 36.8741 39.6487ZM28.378 39.1449C28.0269 39.2329 27.6728 39.309 27.3166 39.3728C26.8647 39.4538 26.7382 39.4713 26.2939 39.5138C25.5033 39.5895 24.707 39.6057 23.9142 39.5624C21.0063 39.4038 17.9854 38.2914 15.6672 36.4533C13.1944 34.4926 11.4217 31.8699 10.5703 28.9086C9.74082 26.0234 9.79279 23.0056 10.7353 20.1301C11.6708 17.2763 13.6185 14.5884 16.0653 12.8253C16.6976 12.3695 17.364 11.9614 18.057 11.6044C18.7834 11.2303 19.3179 11.0078 20.0925 10.7525C20.8325 10.5086 21.5906 10.3195 22.3584 10.1875C22.7447 10.1213 22.8522 10.1057 23.2743 10.0653C23.6696 10.0274 24.0662 10.0045 24.4632 9.99633C26.0541 9.96377 27.3525 10.1319 28.8677 10.5645C30.3726 10.9942 31.6598 11.5901 32.9966 12.4768C33.6638 12.9193 34.1794 13.3295 34.781 13.8798C39.3651 18.1343 40.823 24.7614 38.4333 30.5325C37.2913 33.2907 35.1233 35.8129 32.5253 37.4042C31.1755 38.2309 29.9149 38.7591 28.378 39.1449ZM54.971 46.8715C54.6916 46.6048 54.4005 46.3494 54.1154 46.0886C52.6875 44.7823 51.2596 43.476 49.8318 42.1697C48.3187 40.7854 46.8055 39.401 45.2924 38.0168C44.8989 37.6568 44.5071 37.2951 44.112 36.9369C43.1648 36.0777 41.88 35.6725 40.636 36.1253C40.5179 36.1683 40.4055 36.2179 40.2975 36.2726C39.6766 35.7044 39.0555 35.1363 38.4346 34.5683C38.6767 34.2319 38.9072 33.8871 39.1239 33.5336C40.8928 30.6473 41.7543 27.1987 41.5467 23.8195C41.3336 20.3483 40.063 17.0471 37.9083 14.3207C37.3853 13.6589 36.8106 13.0422 36.1924 12.4684C33.5862 10.0844 30.3438 8.5779 26.8418 8.13039C23.4938 7.7026 20.0475 8.3381 17.0497 9.881C10.853 13.0699 7.22895 20.0486 8.13906 26.9449C8.59556 30.4046 10.1009 33.647 12.4744 36.2113C14.826 38.7524 17.992 40.5521 21.3888 41.2354C24.7625 41.914 28.2572 41.5568 31.4222 40.2099C32.0961 39.9233 32.7471 39.5882 33.3748 39.2142C33.4216 39.3008 33.483 39.3818 33.561 39.4533C34.2544 40.0875 34.9478 40.7219 35.6411 41.3563C35.2508 42.3109 35.2678 43.3915 35.8697 44.3358C36.1574 44.7871 36.5424 45.1166 36.9304 45.4716C39.8412 48.1345 42.7518 50.7975 45.6626 53.4605C46.7411 54.4471 47.8356 55.7643 49.3709 55.9238C50.3301 56.0234 51.311 55.6562 51.9968 54.9841C52.1819 54.8029 52.3504 54.6025 52.5249 54.4117C53.2361 53.6344 53.9472 52.8571 54.6582 52.0798C54.8132 51.9104 54.9683 51.741 55.1231 51.5718C55.1564 51.5352 55.1863 51.4964 55.2142 51.4568C56.3144 50.0828 56.2828 48.1231 54.971 46.8715Z" />
</svg>
