<svg width="64" height="64" viewBox="0 0 64 64" fill="none" xmlns="http://www.w3.org/2000/svg">
<path d="M18.772 30.5155C20.6783 30.5155 22.5846 30.5155 24.4909 30.5155C27.5452 30.5155 30.5995 30.5155 33.6539 30.5155C34.353 30.5155 35.0521 30.5155 35.7512 30.5155C37.029 30.5155 37.0311 28.5298 35.7512 28.5298C33.8449 28.5298 31.9387 28.5298 30.0324 28.5298C26.9779 28.5298 23.9236 28.5298 20.8693 28.5298C20.1702 28.5298 19.4711 28.5298 18.772 28.5298C17.4943 28.5298 17.492 30.5155 18.772 30.5155Z" />
<path d="M18.772 36.0494C20.6783 36.0494 22.5846 36.0494 24.4909 36.0494C27.5452 36.0494 30.5995 36.0494 33.6539 36.0494C34.353 36.0494 35.0521 36.0494 35.7512 36.0494C37.029 36.0494 37.0311 34.0636 35.7512 34.0636C33.8449 34.0636 31.9387 34.0636 30.0324 34.0636C26.9779 34.0636 23.9236 34.0636 20.8693 34.0636C20.1702 34.0636 19.4711 34.0636 18.772 34.0636C17.4943 34.0636 17.492 36.0494 18.772 36.0494Z" />
<path d="M51.0916 47.5764C50.7024 49.431 49.7815 50.9559 48.3172 52.1879C47.7432 52.671 46.7468 53.2479 46.0441 53.5048C45.0448 53.8702 44.224 54.0081 43.2182 54.0142C39.8801 53.9938 36.7627 51.8414 35.662 48.7104C35.3641 47.8628 35.2244 47.1327 35.1945 46.3198C35.1593 45.3583 35.2412 44.6699 35.5001 43.7668C35.7397 42.9303 36.0349 42.2918 36.5451 41.5207C36.9584 40.8957 37.5319 40.2632 38.1994 39.7145C38.3908 39.5573 38.7043 39.3357 39.0191 39.1427C39.1981 39.033 39.381 38.9296 39.5672 38.8327C39.6605 38.7841 39.7546 38.7371 39.8497 38.6919C39.8801 38.6775 40.1182 38.5721 40.1176 38.5703C40.9195 38.2419 41.8192 38.0329 42.5509 37.9792C44.3175 37.8494 45.9351 38.2345 47.4173 39.1427C48.7862 39.9814 49.8517 41.1889 50.5558 42.7115C50.6764 42.9721 50.8238 43.3734 50.9365 43.7668C50.9957 43.9736 51.0475 44.1824 51.0916 44.3928C51.1139 44.4988 51.1343 44.6051 51.1526 44.712C51.1636 44.7759 51.1738 44.8401 51.1834 44.9044C51.1855 44.923 51.1888 44.9501 51.1933 44.9883C51.2937 45.8949 51.2538 46.8035 51.0916 47.5764ZM33.223 51.6375C30.5509 51.6375 27.8788 51.6375 25.2065 51.6375C22.7971 51.6375 20.3875 51.6375 17.9781 51.6375C16.9277 51.6375 15.8756 51.6561 14.8252 51.6367C13.2727 51.6078 12.0214 50.3126 12.0036 48.7604C12.0012 48.5526 12.0036 48.3447 12.0036 48.1369C12.0036 46.7077 12.0036 45.2784 12.0036 43.8493C12.0036 41.5194 12.0036 39.1897 12.0036 36.8599C12.0036 34.1308 12.0036 31.4018 12.0036 28.6726C12.0036 26.0906 12.0036 23.5087 12.0036 20.9265C12.0036 18.9906 12.0036 17.0545 12.0036 15.1183C12.0036 14.349 11.9902 13.5782 12.0044 12.809C12.0332 11.258 13.3302 10.0054 14.8809 9.98728C15.3024 9.98247 15.724 9.98728 16.1455 9.98728C18.4971 9.98728 20.8488 9.98728 23.2003 9.98728C25.5356 9.98728 27.8709 9.98728 30.2062 9.98728C30.2604 9.98728 30.3148 9.98728 30.369 9.98728C30.369 12.8215 30.369 15.6559 30.369 18.4902C30.369 19.2684 30.4136 20.0183 30.8556 20.7023C31.4925 21.688 32.5436 22.1287 33.6838 22.1287C33.7882 22.1287 33.8927 22.1287 33.9971 22.1287C35.5904 22.1331 37.1836 22.1289 38.7768 22.1287C40.0244 22.1287 41.272 22.1287 42.5196 22.1287C42.5196 22.7573 42.5196 23.3856 42.5196 24.014C42.5196 26.2884 42.5196 28.5627 42.5196 30.8369C42.5196 32.5621 42.5196 34.2872 42.5196 36.0124C40.9734 36.1106 39.4425 36.5659 38.0618 37.401C37.0813 37.9939 36.2317 38.7416 35.5285 39.5974C33.6964 39.5974 31.8644 39.5974 30.0324 39.5974C26.9779 39.5974 23.9236 39.5974 20.8693 39.5974C20.1702 39.5974 19.4711 39.5974 18.772 39.5974C17.4943 39.5974 17.492 41.5832 18.772 41.5832C20.6783 41.5832 22.5846 41.5832 24.4909 41.5832C27.5452 41.5832 30.5995 41.5832 33.6539 41.5832C33.8534 41.5832 34.0533 41.5832 34.2529 41.5832C33.3003 43.5346 32.9721 45.7868 33.4085 47.9983C33.6677 49.3123 34.2111 50.548 34.9655 51.6375C34.3846 51.6375 33.8037 51.6375 33.223 51.6375ZM32.3547 13.4736C32.3547 12.7792 32.3547 12.0846 32.3547 11.3901C33.1617 12.1967 33.9689 13.0031 34.7759 13.8096C36.8886 15.9207 39.0015 18.0318 41.1142 20.1431C38.8903 20.1431 36.6665 20.1431 34.4427 20.1431C34.3673 20.1431 34.2918 20.1429 34.2164 20.1431C34.1086 20.1434 34.0008 20.1439 33.8932 20.1431C33.5258 20.1405 33.3591 20.1076 33.0276 19.9059C32.9118 19.8353 32.6612 19.5841 32.592 19.4701C32.4912 19.3041 32.4607 19.2353 32.4323 19.1426C32.3744 18.9537 32.358 18.8745 32.3571 18.7757C32.356 18.6467 32.3547 18.5179 32.3547 18.3888C32.3547 16.7505 32.3547 15.1121 32.3547 13.4736ZM49.6412 38.3104C48.0693 37.0182 46.1665 36.2507 44.2099 36.0474C44.3083 36.0564 44.4071 36.0637 44.5053 36.0756C44.5053 35.7659 44.5053 35.4564 44.5053 35.1467C44.5053 32.4855 44.5053 29.8243 44.5053 27.1631C44.5053 25.4052 44.5053 23.6474 44.5053 21.8896C44.5053 21.6385 44.5053 21.3871 44.5053 21.136C44.5053 21.0258 44.4852 20.9195 44.4501 20.8194L44.4442 20.8034C44.4355 20.7799 44.4264 20.7568 44.4159 20.7342C44.3702 20.6271 44.3054 20.5248 44.2145 20.4338C42.8425 19.0629 41.4704 17.6918 40.0983 16.3209C37.9221 14.1461 35.7458 11.9715 33.5694 9.79675C33.0844 9.31208 32.5994 8.82741 32.1143 8.34273L32.0998 8.32814L32.0995 8.32798L32.0639 8.29238L32.0581 8.28741C31.9605 8.18188 31.8358 8.09816 31.6833 8.0494C31.5788 8.01332 31.4732 7.99808 31.3691 8.00192L31.3619 8.00161C29.8904 8.00161 28.4188 8.00161 26.9473 8.00161C24.2564 8.00161 21.5654 8.00161 18.8744 8.00161C17.8795 8.00161 16.8847 8.00161 15.8897 8.00161C15.2805 8.00161 14.678 7.98284 14.0735 8.0749C11.9358 8.39999 10.3163 10.2107 10.0557 12.3213C10.012 12.6743 10.0178 13.0239 10.0178 13.3784C10.0178 14.7785 10.0178 16.1786 10.0178 17.5787C10.0178 19.9365 10.0178 22.2943 10.0178 24.652C10.0178 27.4187 10.0178 30.1855 10.0178 32.9522C10.0178 35.5791 10.0178 38.2059 10.0178 40.8328C10.0178 42.7781 10.0178 44.7232 10.0178 46.6681C10.0178 47.64 9.94324 48.6567 10.0993 49.6204C10.446 51.7631 12.2811 53.3417 14.3909 53.5921C14.798 53.6405 15.214 53.6232 15.6231 53.6232C17.4803 53.6232 19.3375 53.6232 21.1947 53.6232C23.9151 53.6232 26.6355 53.6232 29.3559 53.6232C31.7884 53.6232 34.221 53.6232 36.6537 53.6232C36.6907 53.6232 36.7278 53.6232 36.7648 53.6232C38.1271 54.781 39.789 55.5848 41.5787 55.8597C42.1231 55.9434 42.6673 55.9967 43.2182 56C47.4196 55.9744 51.1721 53.3164 52.6348 49.388C54.0757 45.5179 52.8281 40.93 49.6412 38.3104Z" />
<path d="M46.5654 42.0527C46.2993 42.3046 46.0682 42.6042 45.8244 42.8772C45.2754 43.4919 44.7266 44.1068 44.1776 44.7216C43.2792 45.7278 42.3806 46.7342 41.4821 47.7406C41.1221 47.4044 40.762 47.0684 40.402 46.7323C39.9686 46.3279 39.5131 45.8309 38.8573 46.1212C38.1247 46.4453 38.1274 47.3287 38.6485 47.8294C39.0926 48.2564 39.5498 48.6705 40.0002 49.0907C40.4275 49.4892 40.8783 50.0781 41.4882 50.1586C41.5062 50.1635 41.5254 50.1668 41.5472 50.1663C41.5748 50.1684 41.5985 50.1649 41.6202 50.1583C42.0906 50.1145 42.3527 49.7649 42.6471 49.4352C43.1026 48.9248 43.5584 48.4145 44.014 47.9042C45.129 46.6553 46.2441 45.4064 47.3591 44.1574C47.5942 43.8942 47.863 43.6401 48.0685 43.3519C48.7623 42.3797 47.4276 41.237 46.5654 42.0527Z" />
</svg>
