<svg width="64" height="64" viewBox="0 0 64 64" fill="none" xmlns="http://www.w3.org/2000/svg">
<path d="M34.9295 20.7226C36.6406 22.4337 36.6407 25.2181 34.9295 26.9293C33.2183 28.6405 30.4339 28.6404 28.7228 26.9293C27.0116 25.2181 27.0115 22.4337 28.7227 20.7225C30.4339 19.0113 33.2183 19.0114 34.9295 20.7226ZM27.4131 28.239C29.8465 30.6723 33.8057 30.6723 36.2391 28.239C38.6724 25.8057 38.6724 21.8465 36.239 19.4131C33.8057 16.9798 29.8463 16.9796 27.413 19.4129C24.9796 21.8463 24.9799 25.8057 27.4131 28.239Z" />
<path d="M41.9294 37.7226C43.6405 39.4337 43.6406 42.2181 41.9294 43.9293C40.2182 45.6405 37.4338 45.6404 35.7228 43.9293C34.0116 42.2181 34.0114 39.4337 35.7226 37.7225C37.4338 36.0113 40.2182 36.0114 41.9294 37.7226ZM34.4131 45.239C36.8465 47.6723 40.8057 47.6723 43.2391 45.239C45.6723 42.8057 45.6724 38.8465 43.239 36.4131C40.8057 33.9798 36.8463 33.9796 34.413 36.4129C31.9796 38.8463 31.9798 42.8057 34.4131 45.239Z" />
<path d="M24.9294 34.7226C26.6405 36.4337 26.6406 39.2181 24.9294 40.9293C23.2182 42.6405 20.4338 42.6404 18.7228 40.9293C17.0116 39.2181 17.0114 36.4337 18.7226 34.7225C20.4338 33.0113 23.2182 33.0115 24.9294 34.7226ZM17.4131 42.239C19.8465 44.6724 23.8057 44.6724 26.2391 42.239C28.6723 39.8057 28.6724 35.8465 26.239 33.4131C23.8057 30.9799 19.8463 30.9796 17.413 33.4129C14.9796 35.8463 14.9798 39.8057 17.4131 42.239Z" />
<path fill-rule="evenodd" clip-rule="evenodd" d="M10 32C10 44.1503 19.8497 54 32 54C42.3764 54 51.0776 46.8147 53.3947 37.1487C50.1242 36.1442 47.7466 33.0998 47.7466 29.5C47.7466 28.8437 47.826 28.205 47.9756 27.5936C44.7943 26.5365 42.5 23.5362 42.5 20C42.5 19.916 42.5013 19.8324 42.5039 19.749C39.0515 18.8622 36.5 15.7291 36.5 12C36.5 11.4846 36.549 10.9798 36.6426 10.4903C35.1473 10.1693 33.5943 10 32 10C19.8497 10 10 19.8497 10 32ZM38.5828 11.0012C38.5283 11.326 38.5 11.6597 38.5 12C38.5 14.7298 40.323 17.0339 42.8181 17.7611C43.3517 17.9166 43.9161 18 44.5 18C44.6157 18 44.7307 17.9967 44.8449 17.9903C44.6216 18.6186 44.5 19.2951 44.5 20C44.5 22.684 46.2624 24.9564 48.693 25.7231C49.2633 25.903 49.8703 26 50.5 26C50.6281 26 50.7552 25.996 50.8813 25.9881C50.7428 26.1795 50.6154 26.3794 50.5 26.5869C50.2583 27.0212 50.069 27.4887 49.9406 27.9807C49.814 28.466 49.7466 28.9751 49.7466 29.5C49.7466 32.2132 51.5475 34.5058 54.0192 35.2476C54.5662 35.4118 55.1461 35.5 55.7466 35.5C55.6483 36.1732 55.5219 36.8374 55.3689 37.4912C52.8858 48.0998 43.3655 56 32 56C18.7452 56 8 45.2548 8 32C8 18.7452 18.7452 8 32 8C33.8092 8 35.5717 8.2002 37.2665 8.57965C37.9353 8.72938 38.5935 8.90702 39.2399 9.11129C38.9215 9.68976 38.6958 10.3264 38.5828 11.0012Z" />
</svg>
