<svg width="64" height="64" viewBox="0 0 64 64" fill="none" xmlns="http://www.w3.org/2000/svg">
<path d="M53.5558 36.383C53.0849 38.6732 52.3376 40.6828 51.2291 42.6698C50.1121 44.6723 48.8584 46.2949 47.2016 47.8852C45.575 49.4466 43.836 50.6752 41.7643 51.7141C40.723 52.2363 39.8709 52.5836 38.7336 52.948C37.6266 53.3029 36.4927 53.5725 35.3447 53.7547C34.8799 53.8284 34.3753 53.8882 33.7948 53.9332C33.1958 53.9796 32.5954 54.0015 31.9946 54.0029C27.4136 53.9917 23.0131 52.5982 19.2267 49.913C18.7292 49.5601 18.4733 49.364 18.0067 48.9753C17.5608 48.6038 17.1288 48.2158 16.7118 47.8119C16.3077 47.4204 15.9177 47.0143 15.5431 46.5944C15.3674 46.3975 15.1951 46.1976 15.0262 45.9949C14.9362 45.8867 14.847 45.7777 14.759 45.6679C14.7259 45.6267 14.6929 45.5854 14.6602 45.544C14.6632 45.5479 14.5553 45.4087 14.5387 45.3877C13.8609 44.4976 13.249 43.5564 12.7085 42.5768C12.1451 41.5558 11.7196 40.6233 11.3502 39.6119C10.9535 38.5257 10.6392 37.4096 10.4117 36.2758C10.1803 35.1224 10.0639 34.1441 10.0161 32.9117C9.96883 31.695 10.0168 30.4745 10.1611 29.2656C10.2118 28.84 10.3107 28.2356 10.4226 27.6849C10.5383 27.1159 10.6756 26.5513 10.8345 25.9929C11.4618 23.7855 12.3506 21.8526 13.6406 19.8944C14.2817 18.9212 14.8286 18.2128 15.6136 17.3411C16.3667 16.5049 17.1809 15.7233 18.0473 15.005C21.4241 12.2057 25.871 10.4065 30.2502 10.0766C32.656 9.89538 34.9048 10.0741 37.169 10.6253C39.4504 11.1807 41.3896 11.9844 43.3912 13.1999C47.1701 15.4947 50.1754 18.8748 52.048 22.9587C52.4737 23.8871 52.876 24.9927 53.1842 26.0971C53.3403 26.6567 53.4752 27.2223 53.5882 27.7921C53.6416 28.0614 53.6902 28.3317 53.7338 28.6028C53.7564 28.7423 53.7776 28.8823 53.7973 29.0223C53.8015 29.0527 53.8072 29.0943 53.808 29.1005C53.8197 29.1922 53.8305 29.284 53.8411 29.3757C54.1126 31.7495 54.0113 34.1673 53.5558 36.383ZM55.0935 25.4584C53.7732 20.8134 51.0151 16.5821 47.2823 13.5162C43.4457 10.3651 38.7478 8.45643 33.7948 8.07028C28.8557 7.68508 23.817 8.89308 19.5835 11.464C15.49 13.9497 12.1389 17.6742 10.1609 22.0411C8.06876 26.6602 7.47323 31.836 8.47298 36.8102C9.42876 41.5647 11.9007 45.9954 15.4044 49.3432C18.907 52.6902 23.4237 54.9734 28.2191 55.7104C29.4699 55.9027 30.7288 56.0102 31.9946 56.0134C36.9179 56.0014 41.8057 54.4794 45.8206 51.6182C49.81 48.7753 52.8664 44.7962 54.5592 40.1967C56.2838 35.5103 56.458 30.2588 55.0935 25.4584Z" />
<path d="M31.9457 19.5002C34.3656 19.5002 36.3345 21.469 36.3345 23.889C36.3345 26.309 34.3656 28.2778 31.9457 28.2778C29.5257 28.2778 27.5568 26.309 27.5568 23.889C27.5568 21.469 29.5257 19.5002 31.9457 19.5002ZM31.9457 30.1299C35.387 30.1299 38.1866 27.3303 38.1866 23.889C38.1866 20.4478 35.387 17.6482 31.9457 17.6482C28.5046 17.6482 25.7047 20.4478 25.7047 23.889C25.7047 27.3303 28.5046 30.1299 31.9457 30.1299Z" />
<path d="M43.7949 33.1122C43.7612 33.3972 43.7121 33.6801 43.6543 33.9611C43.5475 34.4793 43.4053 34.9899 43.2248 35.4872C42.9354 36.2844 42.5196 37.0383 42.0179 37.7216C41.9912 37.7577 41.9642 37.7938 41.9371 37.8295L41.9155 37.8563C41.8648 37.9191 41.8138 37.9815 41.7617 38.043C41.6479 38.1774 41.5303 38.3085 41.4087 38.4357C41.2095 38.6441 41 38.8428 40.7801 39.029C40.7358 39.0666 40.6033 39.17 40.5934 39.1796C40.5382 39.2206 40.4834 39.262 40.427 39.3012C40.2585 39.418 40.3229 39.3998 40.1369 39.2679C40.0662 39.2179 39.8593 39.0525 40.0359 39.1963C39.9379 39.1164 39.8394 39.0375 39.7442 38.9544C39.5284 38.7661 39.323 38.5661 39.1277 38.3568C39.0144 38.2351 38.9046 38.11 38.7983 37.9821C38.6625 37.8186 38.6636 37.8218 38.5164 37.6151C38.2785 37.2811 38.0629 36.9315 37.8707 36.5694C37.3947 35.6737 37.0891 34.6998 36.9067 33.7036C36.8693 33.4987 36.7629 33.1806 36.8007 32.9716C36.822 32.8549 36.721 32.9382 36.9999 32.8736C37.5999 32.7349 38.1847 32.5109 38.7336 32.2325C39.2156 31.988 39.6598 31.6827 40.0798 31.3439C40.1486 31.2884 40.2163 31.232 40.283 31.174L40.3169 31.1474L40.321 31.1509C40.3851 31.2082 40.451 31.2636 40.5176 31.318C41.4793 32.1019 42.6016 32.6495 43.8151 32.9152C43.8026 32.9785 43.8025 33.0486 43.7949 33.1122ZM20.4811 44.4688C20.9639 38.5581 25.9676 33.9425 31.9166 33.9425C33.1133 33.9425 34.2674 34.1276 35.3528 34.4694C35.5386 35.276 35.8303 36.0705 36.1514 36.7914C36.8356 38.3262 37.9189 39.7009 39.2898 40.6786C39.7645 41.0173 40.3364 41.1436 40.8919 40.9206C41.194 40.7993 41.4472 40.5906 41.701 40.3911C41.8282 40.291 41.9513 40.1868 42.0715 40.0799C42.7738 41.4106 43.2221 42.8953 43.3512 44.4688H20.4811ZM40.2259 31.064L40.2478 31.0885C40.2325 31.0811 40.2229 31.0726 40.2259 31.064ZM40.3592 31.1067L40.3618 31.1027L40.3549 31.1118L40.3592 31.1067ZM40.3623 31.102C40.4188 31.0137 40.3841 31.1159 40.3623 31.102ZM44.4785 31.4035C44.4176 31.3733 44.35 31.3485 44.2735 31.332C43.6207 31.1909 43.0038 30.9745 42.4228 30.644C42.2163 30.5265 42.0159 30.3981 41.8228 30.2597C41.7841 30.2319 41.7456 30.2033 41.7074 30.1745L41.6513 30.1285C41.5706 30.0607 41.4932 29.9895 41.4135 29.9209C40.7468 29.3484 39.9178 29.3284 39.2415 29.8996C38.9035 30.1852 38.6514 30.3924 38.2039 30.648C37.6394 30.9703 37.0509 31.168 36.4199 31.317C35.8159 31.4596 35.353 31.8852 35.2007 32.4555C34.1496 32.1889 33.0495 32.0463 31.9166 32.0463C24.9461 32.0463 19.0886 37.486 18.5821 44.4294C18.5581 44.7553 18.5458 45.0844 18.5458 45.4171V46.3652H45.2865V45.4171C45.2865 42.9241 44.5997 40.589 43.4069 38.5892C44.0697 37.6778 44.576 36.6699 44.9262 35.5952C45.1676 34.8541 45.3173 34.0925 45.4163 33.3203C45.472 32.8846 45.4962 32.4739 45.2692 32.0752C45.09 31.761 44.8062 31.5368 44.4785 31.4035Z" />
</svg>
