<svg width="64" height="64" viewBox="0 0 64 64" fill="none" xmlns="http://www.w3.org/2000/svg">
<path d="M28.1911 25.6302C29.2547 25.6572 30.1384 26.4976 30.1411 27.5802C30.1437 28.6406 29.2518 29.5326 28.1911 29.53C27.1289 29.5274 26.2411 28.6443 26.2411 27.5802C26.2411 26.4976 27.1297 25.6572 28.1911 25.6302ZM28.1911 31.418C29.8141 31.3894 31.2516 30.389 31.8093 28.8574C32.3485 27.3762 31.8618 25.6406 30.6515 24.6389C29.4003 23.6035 27.5816 23.4479 26.1903 24.3061C24.8356 25.1417 24.1432 26.7337 24.4213 28.2941C24.7442 30.1052 26.3844 31.3862 28.1911 31.418Z" />
<path d="M23.6163 38.5442C23.2756 38.5442 22.9349 38.5442 22.594 38.5442C22.9443 36.5312 24.3946 34.7937 26.3475 34.1311C28.4597 33.4142 30.8173 34.0179 32.3345 35.6493C33.0813 36.452 33.5742 37.4674 33.7592 38.5442C30.3784 38.5442 26.9972 38.5442 23.6163 38.5442ZM31.0313 32.502C27.8139 31.1769 24.0703 32.3092 22.0382 35.1049C20.9832 36.5565 20.6259 38.2285 20.6259 39.9923C20.6259 40.23 20.8274 40.4322 21.0656 40.4322C25.2278 40.4322 29.39 40.4322 33.5522 40.4322C34.1303 40.4322 34.7084 40.4322 35.2865 40.4322C35.4156 40.4322 35.5136 40.3852 35.5839 40.3145L35.5987 40.3005L35.607 40.2918C35.6786 40.2215 35.7262 40.1227 35.7262 39.9923C35.7262 38.4516 35.4721 36.9904 34.6744 35.647C33.8372 34.2366 32.5463 33.126 31.0313 32.502Z" />
<path d="M48.9027 29.206C48.9027 30.7644 48.9027 32.3229 48.9027 33.8811C48.9027 34.5209 48.9027 35.1605 48.9027 35.8002C48.9027 35.8702 48.9011 35.941 48.8998 36.0117C46.8565 36.0117 44.8131 36.0115 42.7698 36.0115C42.3523 36.0115 41.9339 36.0127 41.6511 35.9562C40.7681 35.7799 40.1224 35.4329 39.515 34.7967C39.2063 34.4734 39.0549 34.2529 38.8254 33.7891C38.7158 33.5673 38.7219 33.5763 38.6353 33.289C38.6009 33.1746 38.5706 33.0589 38.5445 32.9422C38.5357 32.9031 38.4892 32.5997 38.4864 32.6109C38.3957 31.6926 38.5553 30.9421 38.992 30.1968C39.726 28.9437 41.0303 28.2859 42.4717 28.283C43.5969 28.2809 44.722 28.283 45.847 28.2832C46.8526 28.2832 47.8925 28.3561 48.9027 28.3049C48.9027 28.6052 48.9027 28.9057 48.9027 29.206ZM47.1138 50.8258C47.1101 51.1586 47.0979 51.2591 47.0419 51.4944C47.0104 51.6268 46.9706 51.7565 46.9268 51.8853C46.9111 51.9318 46.8938 51.9786 46.8753 52.0244C46.866 52.0424 46.8544 52.0652 46.8365 52.0997C46.7841 52.2012 46.73 52.3018 46.6703 52.3994C46.644 52.4425 46.4377 52.7338 46.5129 52.6396C46.1577 53.0851 45.9338 53.2448 45.463 53.4976C45.1201 53.6819 44.6118 53.7944 44.1517 53.8012C43.7812 53.8012 43.4105 53.8012 43.04 53.8012C43.04 52.6194 43.04 51.4374 43.04 50.2554C43.04 46.6316 43.04 43.0078 43.04 39.384C43.04 39.0149 43.04 38.6459 43.04 38.2768C43.7112 38.2788 44.3863 38.2485 45.0481 38.2485C45.7366 38.2485 46.4252 38.2485 47.1138 38.2485C47.1138 38.5437 47.1138 38.8388 47.1138 39.1342C47.1138 41.8329 47.1138 44.5318 47.1138 47.2306C47.1138 48.4289 47.127 49.6277 47.1138 50.8258ZM40.841 49.2159C40.841 50.7415 40.8037 52.2737 40.8227 53.8012C40.4673 53.8012 40.112 53.8012 39.7566 53.8012C36.6122 53.8012 33.4677 53.8012 30.3232 53.8012C27.3291 53.8012 24.3352 53.8012 21.3412 53.8012C20.4703 53.8012 19.5993 53.8012 18.7283 53.8012C18.5525 53.8012 18.3766 53.8028 18.2009 53.8012C17.521 53.7951 17.0083 53.6467 16.4107 53.2335C15.7226 52.7578 15.2297 51.8386 15.2017 50.961C15.1983 50.8537 15.1999 50.7458 15.1999 50.6381C15.1999 50.098 15.1999 49.5579 15.1999 49.0178C15.1999 46.7106 15.1999 44.4033 15.1999 42.0962C15.1999 38.863 15.1999 35.6299 15.1999 32.3967C15.1999 29.1423 15.1999 25.8877 15.1999 22.633C15.1999 20.2107 15.1999 17.7881 15.1999 15.3656C15.1999 14.7514 15.1999 14.1374 15.1999 13.5233C15.1999 13.4092 15.1986 13.2949 15.1999 13.1808V13.1637C15.201 13.0623 15.2039 12.9616 15.2115 12.8605C15.2276 12.6405 15.211 12.7784 15.259 12.5655C15.2887 12.4326 15.3246 12.3011 15.3676 12.172C15.3874 12.1126 15.4093 12.0531 15.4323 11.9948C15.4368 11.9859 15.4426 11.974 15.4521 11.9544C15.5104 11.8345 15.5738 11.717 15.6433 11.6032C15.6713 11.5574 15.848 11.3085 15.8141 11.3467C16.1768 10.8952 16.435 10.7047 16.9531 10.4536C17.2537 10.3079 17.7335 10.2067 18.1622 10.2014C18.2754 10.1999 18.3887 10.2014 18.5018 10.2014C19.2745 10.2014 20.0474 10.2014 20.8201 10.2014C23.7254 10.2014 26.6308 10.2014 29.5362 10.2014C32.7348 10.2014 35.9332 10.2014 39.1317 10.2014C39.7014 10.2014 40.2713 10.1995 40.841 10.1975C40.841 11.3995 40.841 12.6016 40.841 13.8035C40.841 17.4273 40.841 21.0511 40.841 24.6749C40.841 25.1985 40.841 25.7221 40.841 26.2456C39.9311 26.4782 39.0995 26.9045 38.3572 27.5208C36.5285 29.0386 35.7845 31.6818 36.496 33.9402C37.145 35.9999 38.8067 37.5149 40.841 38.0455C40.841 41.769 40.841 45.4924 40.841 49.2159ZM43.04 14.8432C43.04 13.2968 43.0785 11.7434 43.0576 10.1953C43.4118 10.1962 43.766 10.1977 44.1201 10.2014H44.1501C44.1906 10.2019 44.2331 10.2019 44.2737 10.2032C44.3248 10.2048 44.7056 10.2489 44.5766 10.2252C45.1737 10.3347 45.4923 10.4565 45.9684 10.8152C45.9459 10.8011 46.0991 10.9287 46.1234 10.9512C46.2211 11.041 46.3122 11.1363 46.4017 11.234C46.41 11.243 46.4683 11.3126 46.4974 11.3462C46.5175 11.374 46.5475 11.4141 46.5462 11.4123C46.6325 11.5372 46.712 11.6674 46.7839 11.8012C46.978 12.1633 47.1042 12.6542 47.1129 13.1024C47.1188 13.406 47.1138 13.71 47.1138 14.0135C47.1138 15.9682 47.1138 17.923 47.1138 19.8777C47.1138 21.9339 47.1138 23.99 47.1138 26.0462C45.756 26.0462 44.3979 26.0462 43.04 26.0462C43.04 22.3118 43.04 18.5774 43.04 14.8432ZM51.1397 30.3727C51.1397 29.7466 51.1397 29.1207 51.1397 28.4946C51.1397 28.1428 51.1749 27.7501 51.0892 27.4052C50.8704 26.5261 50.1328 26.1167 49.3125 26.0554C49.3125 25.483 49.3125 24.9106 49.3125 24.3383C49.3125 21.6576 49.3125 18.9769 49.3125 16.2963C49.3125 15.0912 49.4239 13.823 49.2765 12.6223C48.9555 10.0096 46.7963 8.03638 44.1491 8.00257C43.6975 7.99678 43.2454 8.00257 42.7938 8.00257C40.1435 8.00257 37.4932 8.00257 34.8428 8.00257C31.4897 8.00257 28.1364 8.00257 24.7833 8.00257C22.6786 8.00257 20.5741 8.00257 18.4695 8.00257C16.9883 8.00257 15.5821 8.44517 14.513 9.51448C13.4755 10.5518 13.0011 11.9328 13.0011 13.3789C13.0011 14.9658 13.0011 16.5527 13.0011 18.1395C13.0011 21.1078 13.0011 24.0759 13.0011 27.044C13.0011 30.4622 13.0011 33.8802 13.0011 37.2983C13.0011 40.2349 13.0011 43.1715 13.0011 46.108C13.0011 47.6317 12.9987 49.1555 13.0011 50.6792C13.0036 52.2729 13.6318 53.8157 14.8952 54.8259C15.9719 55.687 17.2209 56 18.5714 56C20.7594 56 22.9473 56 25.1353 56C28.4976 56 31.8597 56 35.2218 56C37.8068 56 40.3917 56 42.9766 56C43.3683 56 43.7601 56 44.1517 56C46.8958 55.9596 49.1405 53.8232 49.3054 51.082C49.327 50.7242 49.3125 50.3616 49.3125 50.0034C49.3125 47.9977 49.3125 45.9918 49.3125 43.986C49.3125 42.0735 49.3125 40.161 49.3125 38.2485C49.3302 38.2483 49.3476 38.2501 49.3655 38.2485C49.5272 38.2485 49.6696 38.219 49.7952 38.169C50.6306 37.9319 51.1302 37.2405 51.1395 36.3086C51.1442 35.8448 51.1395 35.3806 51.1395 34.9168C51.1395 33.402 51.1397 31.8873 51.1397 30.3727Z" />
</svg>
