<svg width="64" height="64" viewBox="0 0 64 64" fill="none" xmlns="http://www.w3.org/2000/svg">
<path d="M46.531 34.3275C44.5609 32.3912 42.591 30.4548 40.6211 28.5184C40.1396 28.0452 39.4109 27.0049 38.6259 27.3377C38.0257 27.5921 38.0708 28.1964 38.0708 28.7349C38.0708 29.4307 38.0708 30.1264 38.0708 30.8221C38.0708 30.9131 38.0708 31.0041 38.0708 31.0951C36.0463 31.0951 34.0217 31.0951 31.9972 31.0951C29.6864 31.0951 27.3679 31.0397 25.0576 31.0951C24.4203 31.1104 24.0957 31.5656 24.0957 32.1667C24.0957 32.6685 24.0957 33.17 24.0957 33.6718C22.4368 32.0414 20.7779 30.411 19.1192 28.7805C18.912 28.577 18.7049 28.3734 18.4977 28.1698C20.2228 26.4745 21.9479 24.7791 23.6729 23.0836C23.8132 22.9459 23.9533 22.808 24.0934 22.6703C24.0894 23.2076 24.0822 23.7458 24.0957 24.2823C24.1141 25.0092 24.6617 25.2446 25.2886 25.2446C26.9622 25.2446 28.6356 25.2446 30.309 25.2446C30.8755 25.2446 31.4416 25.2446 32.0081 25.2446C32.0331 25.2446 32.055 25.2399 32.0753 25.2331C32.9345 25.0983 33.2465 23.9052 32.3633 23.5135C32.0444 23.3719 31.6005 23.4349 31.2616 23.4349C29.8198 23.4349 28.3782 23.4349 26.9364 23.4349C26.5931 23.4349 26.2499 23.4349 25.9065 23.4349C25.9121 22.4628 25.953 21.4816 25.9055 20.5122C25.8659 19.7076 24.9639 19.3378 24.3631 19.8674C24.1946 20.0159 24.0403 20.1847 23.8802 20.3421C21.9391 22.25 19.9978 24.1578 18.0567 26.0656C17.5614 26.5523 17.0294 27.0201 16.5623 27.5345C15.8105 28.3625 16.8839 29.1214 17.4264 29.6546C19.396 31.5904 21.3655 33.5262 23.3351 35.4618C23.8117 35.9304 24.5274 36.9527 25.3029 36.6805C25.9324 36.4595 25.9055 35.8403 25.9055 35.2967C25.9055 34.5904 25.9055 33.8842 25.9055 33.1781C25.9055 33.0869 25.9055 32.9959 25.9055 32.9049C27.9301 32.9049 29.9546 32.9049 31.979 32.9049C34.2899 32.9049 36.6082 32.9603 38.9187 32.9049C39.5561 32.8896 39.8806 32.4344 39.8806 31.8333C39.8806 31.3317 39.8806 30.83 39.8806 30.3284C41.5397 31.9589 43.1989 33.5896 44.858 35.2204C45.0651 35.4239 45.2722 35.6275 45.4794 35.831C43.7541 37.5264 42.0289 39.2219 40.3034 40.9174C40.1625 41.0559 40.0216 41.1944 39.8806 41.3329C39.8806 40.8391 39.8806 40.3452 39.8806 39.8514C39.8806 39.2171 39.5486 38.768 38.8813 38.7564C37.4845 38.7319 36.0851 38.7564 34.6881 38.7564C33.9631 38.7564 33.2381 38.7564 32.5133 38.7564C32.0608 38.7564 31.5845 38.7033 31.2669 39.1055C30.7229 39.7939 31.3585 40.5595 32.1041 40.5661C32.697 40.5714 33.2903 40.5661 33.8832 40.5661C35.2787 40.5661 36.6743 40.5661 38.0698 40.5661C38.0643 41.5381 38.0239 42.5193 38.0708 43.4886C38.1098 44.2965 39.0231 44.6648 39.6198 44.1269C39.8004 43.9642 39.9681 43.7845 40.1414 43.6142C42.0828 41.706 44.0241 39.7977 45.9655 37.8895C46.4608 37.4026 47.0645 36.9342 47.4865 36.3786C48.1031 35.567 47.0428 34.8306 46.531 34.3275Z" />
<path d="M53.5431 36.3751C53.0724 38.6646 52.3252 40.6737 51.2172 42.66C50.1003 44.662 48.847 46.2842 47.1906 47.874C45.5644 49.4349 43.826 50.6633 41.7549 51.7019C40.7138 52.2239 39.8619 52.5711 38.7249 52.9354C37.6183 53.2901 36.4847 53.5599 35.337 53.7419C34.8725 53.8155 34.368 53.8753 33.7877 53.9204C33.1888 53.9668 32.5886 53.9887 31.988 53.9901C27.408 53.979 23.0089 52.5857 19.2235 49.9013C18.7261 49.5485 18.4703 49.3523 18.0039 48.9638C17.5582 48.5924 17.1262 48.2045 16.7093 47.8009C16.3054 47.4094 15.9156 47.0034 15.5409 46.5836C15.3653 46.3868 15.1931 46.1869 15.0243 45.9843C14.9343 45.876 14.8452 45.7671 14.7571 45.6573C14.7239 45.6162 14.6911 45.575 14.6584 45.5336C14.6611 45.5371 14.5688 45.4178 14.5427 45.3846C13.8627 44.4927 13.2491 43.5491 12.7071 42.5671C12.144 41.5465 11.7185 40.6142 11.3493 39.6032C10.9527 38.5172 10.6383 37.4013 10.411 36.2678C10.1797 35.1148 10.0634 34.1368 10.0154 32.9046C9.96823 31.6883 10.0162 30.4682 10.1604 29.2595C10.2111 28.8341 10.31 28.2299 10.4218 27.6793C10.5375 27.1104 10.6749 26.5462 10.8337 25.9877C11.4609 23.781 12.3494 21.8488 13.6391 19.8909C14.28 18.9181 14.8267 18.2098 15.6114 17.3384C16.3643 16.5024 17.1782 15.7211 18.0445 15.003C21.4203 12.2045 25.8661 10.4058 30.2439 10.0759C32.6492 9.89469 34.8973 10.0735 37.1609 10.6245C39.4415 11.1799 41.3804 11.9832 43.3814 13.1983C47.1592 15.4925 50.1636 18.8718 52.0357 22.9544C52.4613 23.8827 52.8635 24.988 53.1716 26.0921C53.3277 26.6515 53.4625 27.2169 53.5754 27.7866C53.6289 28.0558 53.6776 28.3259 53.7211 28.597C53.7436 28.7365 53.7649 28.8761 53.7845 29.0161C53.7887 29.0465 53.7943 29.0883 53.7953 29.0945C53.8069 29.1862 53.8179 29.278 53.8283 29.3697C54.0997 31.7429 53.9984 34.1598 53.5431 36.3751ZM55.0804 25.4535C53.7605 20.8099 51.0031 16.5796 47.2713 13.5147C43.4358 10.3644 38.7391 8.4563 33.7877 8.07021C28.85 7.68525 23.8125 8.89265 19.5801 11.4629C15.4879 13.948 12.1377 17.6715 10.1604 22.0371C8.06884 26.6549 7.47335 31.8292 8.47282 36.8021C9.42831 41.5554 11.8995 45.9847 15.4022 49.3317C18.904 52.6777 23.4193 54.9603 28.2134 55.697C29.464 55.8892 30.7224 55.9969 31.988 56C36.9098 55.9881 41.7963 54.4664 45.8101 51.6061C49.7984 48.7639 52.854 44.7859 54.5462 40.1879C56.2704 35.5027 56.4445 30.2525 55.0804 25.4535Z" />
</svg>
