<svg width="64" height="64" viewBox="0 0 64 64" fill="none" xmlns="http://www.w3.org/2000/svg">
<path d="M53.7511 32.6596L53.7317 32.6834L53.7468 32.6569L53.7511 32.6596ZM40.7327 33.9958C40.7163 33.9303 40.4309 33.8201 40.3662 33.7933C40.1231 33.692 39.8743 33.6139 39.6211 33.5511C39.8443 33.3928 40.0676 33.2347 40.2909 33.0766C41.0455 32.5325 41.9288 32.3448 42.809 32.537C42.3782 32.8396 41.9474 33.1422 41.5167 33.4448C41.257 33.6273 41.0025 33.8282 40.7327 33.9958ZM42.9842 36.0172C42.9721 36.0257 42.9577 36.0344 42.9429 36.0432C42.9095 35.9856 42.8765 35.9278 42.841 35.8718C42.7541 35.7345 42.6602 35.6023 42.5613 35.4737C42.5441 35.4512 42.4395 35.3077 42.3565 35.2231C43.6289 34.3292 44.9011 33.4352 46.1734 32.5413C46.7352 32.206 47.3663 32.2745 47.925 32.5425C46.9746 33.2109 46.0241 33.8794 45.0737 34.5477C44.4871 34.9603 43.9005 35.3728 43.3139 35.7854C43.2041 35.8626 43.0945 35.9405 42.9842 36.0172ZM54.4737 31.0806C53.4424 30.4934 52.1817 30.3377 51.0393 30.661C50.5147 30.8095 50.0983 31.0813 49.6408 31.3479C49.6249 31.3399 49.6018 31.3243 49.5733 31.29C49.5382 31.2474 49.4708 31.2094 49.4266 31.1766C49.2881 31.0745 49.1439 30.9806 48.9938 30.8965C48.7194 30.7428 48.4236 30.6191 48.1219 30.5309C47.0027 30.2043 45.859 30.3934 44.9098 31.0604C44.8323 31.1148 44.7552 31.1704 44.6769 31.224C44.6391 31.1882 44.5675 31.1485 44.5661 31.1472C44.3343 30.9406 43.8819 30.8186 43.5886 30.7282C42.9405 30.5284 42.2476 30.4645 41.5744 30.5433C40.5675 30.6613 39.7341 31.0949 38.9214 31.6706C38.2489 32.1469 37.5764 32.623 36.9041 33.0993C36.6939 33.2482 36.3782 33.3954 36.2094 33.5912L36.1985 33.6065C36.1248 33.6163 36.0508 33.624 35.977 33.6328C34.5821 33.7985 33.1867 34.0007 31.7878 34.1281C30.0356 34.2876 28.459 33.4678 26.7594 33.1966C25.2764 32.9602 23.7458 32.9518 22.2756 33.2817C20.9031 33.5896 19.5582 34.2006 18.5602 35.2109C18.0704 35.7068 17.6679 36.2776 17.2653 36.844C16.7476 37.572 16.1798 38.2585 15.5832 38.9234C14.433 40.2056 13.1884 41.4037 11.9577 42.6064C11.3702 43.1808 10.7648 43.7383 10.1599 44.2944C9.86289 44.5675 9.56462 44.839 9.26506 45.1093C8.93452 45.4077 8.54024 45.6875 8.2516 46.0271C7.4653 46.9521 8.69018 48.1262 9.61775 47.3955C10.7017 46.5414 11.6993 45.5305 12.6973 44.5779C14.6549 42.7093 16.6494 40.8312 18.3138 38.6903C18.7968 38.0689 19.2073 37.3893 19.7294 36.7989C20.2134 36.2518 20.8075 35.8512 21.4763 35.5626C22.9016 34.9476 24.5206 34.8559 26.0452 35.0486C27.7667 35.2661 29.347 36.0659 31.0966 36.093C31.7912 36.1039 32.4813 35.9988 33.1694 35.9172C34.6916 35.7365 36.2346 35.4621 37.7682 35.4033C38.2945 35.3833 38.8167 35.4184 39.3408 35.4571C39.759 35.4879 40.2286 35.4661 40.6134 35.6564C41.0667 35.8806 41.9616 37.0532 41.0679 37.2835C40.9155 37.3227 40.7384 37.3206 40.5826 37.3383C38.9416 37.5232 37.3006 37.7083 35.6596 37.8934C35.2289 37.9419 34.7852 37.9645 34.358 38.0401C33.2026 38.2447 33.3593 39.9969 34.5389 39.9643C34.9269 39.9536 35.3311 39.8205 35.7142 39.7587C36.1208 39.693 36.5294 39.6376 36.9391 39.594C37.28 39.5575 37.6223 39.5391 37.9617 39.4894C38.7298 39.3772 39.4978 39.2634 40.2658 39.1504C40.6201 39.0982 40.9743 39.046 41.3284 38.994C41.4214 38.9804 41.5142 38.965 41.6074 38.9529C41.7041 38.9404 41.5239 38.9642 41.6506 38.9496C42.2159 38.8844 43.2574 38.764 43.4292 38.0905C43.4449 38.0756 43.464 38.0591 43.4873 38.0435C43.5839 37.9783 43.6774 37.9069 43.7721 37.8388C43.87 37.7684 43.9678 37.6974 44.0662 37.6276C44.1794 37.547 44.2935 37.4677 44.4072 37.3877C45.0275 36.9514 45.6479 36.5151 46.2682 36.0787C47.6808 35.0855 49.0932 34.0923 50.5054 33.0989C50.7024 32.9605 50.8963 32.816 51.1116 32.7068C51.9099 32.3018 52.8221 32.3774 53.5732 32.8134C53.5002 32.8768 53.4304 32.9459 53.3592 33.0082C52.9889 33.3328 52.6187 33.6574 52.2483 33.9821C51.0535 35.0298 49.8583 36.0774 48.6633 37.1251C46.2379 39.2514 43.8127 41.3777 41.3875 43.5039C41.1428 43.7184 40.9022 43.9385 40.653 44.1477C40.6365 44.1617 40.6205 44.1764 40.6041 44.1907C40.5964 44.1885 40.3935 44.3238 40.3602 44.3437C39.6516 44.7682 38.8918 45.103 38.0991 45.3353C36.4358 45.8229 34.8041 45.716 33.1127 45.6078C31.3622 45.4957 29.6118 45.3838 27.8613 45.2718C26.459 45.182 24.9235 44.9057 23.6077 45.5119C22.9736 45.8041 22.6065 46.2224 22.1504 46.7177C21.5508 47.3685 20.9512 48.0193 20.3518 48.67C19.5608 49.5285 18.7695 50.3866 17.9784 51.2448C17.082 52.2172 16.186 53.19 15.2898 54.1627C15.1008 54.3678 14.935 54.5785 14.9119 54.8719C14.8706 55.3935 15.2644 55.8801 15.7927 55.9218C16.4066 55.9705 16.7718 55.4169 17.1396 55.0177C18.972 53.029 20.8043 51.0404 22.6365 49.0519C23.0972 48.5518 23.5456 48.0359 24.0208 47.5494C24.5039 47.0551 25.2344 47.0413 25.8822 47.0871C27.2557 47.1841 28.6307 47.2629 30.0049 47.3507C31.4736 47.4448 32.9424 47.5387 34.411 47.6326C36.854 47.7888 39.2795 47.261 41.3846 45.9898C42.0222 45.6049 42.5588 45.0547 43.1165 44.5657C44.2489 43.5728 45.3813 42.5799 46.5139 41.587C49.0591 39.3552 51.6046 37.1235 54.1499 34.8917C54.6576 34.4466 55.2012 34.0223 55.6825 33.5479C56.6237 32.6205 55.2468 31.521 54.4737 31.0806Z" />
<path d="M32.0394 9.75868C33.0874 9.78003 34.0485 10.4175 34.4087 11.4173C34.7646 12.4053 34.4648 13.5301 33.6626 14.2082C31.8866 15.7099 29.1074 14.0739 29.5651 11.7911C29.8023 10.6074 30.8471 9.78292 32.0394 9.75868ZM32.0394 16.5681C33.8374 16.5424 35.4506 15.4289 36.0728 13.7332C36.6989 12.027 36.125 10.0537 34.7075 8.92727C33.3091 7.81573 31.3048 7.68569 29.7839 8.63381C28.2668 9.57952 27.4869 11.3968 27.8398 13.1481C28.24 15.1336 30.0385 16.5395 32.0394 16.5681Z" />
<path d="M23.899 11.9063C24.6655 11.9304 25.3072 12.5292 25.3072 13.3145C25.3072 14.0814 24.666 14.7226 23.899 14.7226C23.1544 14.7226 22.5214 14.1166 22.4925 13.372C22.4614 12.5647 23.109 11.931 23.899 11.9063ZM23.899 16.3215C25.1534 16.2941 26.2715 15.5394 26.7175 14.3566C27.1601 13.1832 26.7889 11.8071 25.8248 11.0088C24.8558 10.2064 23.4532 10.0812 22.3672 10.7282C21.2852 11.3725 20.7196 12.6424 20.9463 13.8779C21.207 15.2987 22.4807 16.2904 23.899 16.3215Z" />
<path d="M40.2617 11.9063C41.0281 11.9304 41.6697 12.5292 41.6697 13.3145C41.6697 14.0814 41.0287 14.7226 40.2617 14.7226C39.5171 14.7226 38.8841 14.1166 38.8552 13.372C38.8241 12.5647 39.4717 11.931 40.2617 11.9063ZM40.2617 16.3215C41.5161 16.2941 42.6341 15.5394 43.0802 14.3566C43.5226 13.1832 43.1515 11.8071 42.1873 11.0088C41.2185 10.2064 39.8159 10.0812 38.7297 10.7282C37.6477 11.3725 37.0823 12.6424 37.309 13.8779C37.5695 15.2987 38.8432 16.2904 40.2617 16.3215Z" />
<path d="M39.4847 21.9085C39.0126 21.1072 38.412 20.3888 37.7158 19.7799C38.9678 18.8941 40.652 18.7228 42.0411 19.4173C43.2326 20.013 44.0879 21.13 44.3433 22.4259C42.8166 22.4259 41.2898 22.4259 39.7631 22.4259C39.6772 22.252 39.5854 22.0793 39.4847 21.9085ZM25.1907 25.406C25.5365 22.8225 27.3601 20.5853 29.8479 19.755C32.4143 18.8984 35.2901 19.6613 37.1126 21.6535C38.0641 22.6936 38.6684 24.0131 38.8533 25.406C37.3507 25.406 35.8481 25.406 34.3455 25.406C31.7774 25.406 29.2093 25.406 26.6412 25.406C26.1576 25.406 25.6742 25.406 25.1907 25.406ZM19.8172 22.4259C20.0726 21.1302 20.9281 20.013 22.1195 19.4173C23.4895 18.7324 25.1454 18.8909 26.3916 19.7449C25.901 20.162 25.4515 20.6356 25.0573 21.1645C24.7546 21.5707 24.501 21.9919 24.2884 22.4259C22.798 22.4259 21.3076 22.4259 19.8172 22.4259ZM18.5548 24.0248C20.2704 24.0248 21.9859 24.0248 23.7015 24.0248C23.4646 24.9398 23.3659 25.8968 23.3659 26.8828C23.3659 27.0398 23.4989 27.1732 23.6563 27.1732C25.535 27.1732 27.4136 27.1732 29.2923 27.1732C32.3025 27.1732 35.3129 27.1732 38.3231 27.1732C39.0111 27.1732 39.699 27.1732 40.3871 27.1732C40.4723 27.1732 40.5372 27.1422 40.5834 27.0957L40.5934 27.0862L40.5987 27.0806C40.646 27.0342 40.6775 26.9688 40.6775 26.8828C40.6775 25.8982 40.5887 24.944 40.3527 24.0248C42.1038 24.0248 43.8548 24.0248 45.6057 24.0248C45.83 24.0248 46.0206 23.8349 46.0206 23.61C46.0206 22.5394 45.8692 21.5315 45.3779 20.568C44.8745 19.5804 44.0714 18.7419 43.1155 18.1828C40.961 16.9226 38.2553 17.225 36.3687 18.8119C36.0367 18.6178 35.6922 18.4441 35.3358 18.2956C32.8324 17.2517 30.0332 17.5061 27.7629 18.787C25.8776 17.2213 23.1886 16.929 21.045 18.1828C20.0892 18.7419 19.286 19.5804 18.7826 20.568C18.2913 21.5315 18.14 22.5394 18.14 23.61C18.14 23.8342 18.33 24.0248 18.5548 24.0248Z" />
</svg>
