<svg width="64" height="64" viewBox="0 0 64 64" fill="none" xmlns="http://www.w3.org/2000/svg">
<path d="M50.1429 17.9029C49.8717 18.2024 49.6006 18.5022 49.3296 18.8019C49.2731 18.8643 49.2179 18.9282 49.1599 18.9894C48.97 19.1901 48.7746 19.2981 48.5943 19.314C47.9382 19.3702 47.2821 19.4265 46.626 19.4827C46.5414 19.4899 46.457 19.4972 46.3724 19.5045C47.1095 18.7764 47.8466 18.0483 48.5837 17.3201C49.5084 16.4067 48.0737 14.9889 47.1487 15.9026C46.3351 16.7063 45.5215 17.5099 44.7079 18.3135C44.7176 17.6367 44.7274 16.9597 44.737 16.2829C44.7413 15.9845 44.7068 15.7195 44.8719 15.474C44.9417 15.3703 45.029 15.2822 45.1133 15.189C45.6171 14.6321 46.1206 14.0752 46.6242 13.5184C47.2784 12.7951 47.9325 12.0719 48.5865 11.3487C48.7918 11.1217 49.0095 10.8983 49.2228 10.6714C49.2455 10.7681 49.2675 10.8644 49.2867 10.9599C49.4492 11.7589 49.6115 12.558 49.7739 13.357C49.8667 13.8134 50.3268 14.0568 50.7524 14.0929C51.6004 14.1648 52.4481 14.2367 53.2959 14.3087C53.3255 14.3111 53.3556 14.3149 53.3855 14.3178C52.3046 15.5128 51.2237 16.7079 50.1429 17.9029ZM33.0704 33.721C33.487 34.583 33.6235 35.8077 33.4302 36.7492C33.2912 37.426 33.131 37.8392 32.7938 38.3997C32.4784 38.9241 32.1705 39.2841 31.6539 39.7214C31.4762 39.8716 31.2808 40.0097 30.993 40.1786C30.8392 40.2688 30.6814 40.3524 30.5202 40.4292C30.3397 40.515 30.3768 40.4982 30.2157 40.5568C29.531 40.8053 29.0184 40.8867 28.3639 40.8926C27.7463 40.887 27.3495 40.8318 26.7174 40.6271C26.6055 40.591 26.4943 40.5515 26.3848 40.5083C26.3577 40.4967 26.3114 40.4775 26.305 40.4746C26.24 40.4449 26.1753 40.4141 26.1113 40.3823C25.8398 40.2473 25.581 40.0912 25.3315 39.9199C24.5804 39.4045 23.8421 38.4355 23.5324 37.5816C23.1412 36.5026 23.1017 35.4898 23.4005 34.4343C23.6891 33.4151 24.2519 32.5766 25.1148 31.8505C25.8273 31.2507 26.9753 30.7977 27.9094 30.7295C29.0473 30.6463 30.0476 30.8722 30.993 31.4272C31.0899 31.484 31.1781 31.5392 31.2627 31.5946C30.8657 31.9866 30.4688 32.3788 30.0718 32.7708C29.2699 33.5631 28.4677 34.3553 27.6657 35.1476C26.741 36.061 28.1756 37.479 29.1007 36.5652C30.2938 35.3868 31.4868 34.2083 32.6799 33.0298C32.824 33.2524 32.9552 33.4825 33.0704 33.721ZM39.9262 34.2635C39.9298 34.2933 39.9335 34.323 39.937 34.3529C40.0118 35.0024 40.0377 35.6564 40.0112 36.3097C39.9985 36.625 39.9731 36.9393 39.937 37.2528C39.9362 37.261 39.9274 37.3284 39.9243 37.3533C39.9157 37.4129 39.9067 37.4724 39.897 37.5317C39.8678 37.7116 39.8343 37.8908 39.797 38.0693C39.6723 38.6684 39.5021 39.2585 39.2888 39.8328C39.0948 40.3547 38.8979 40.7778 38.5864 41.3341C37.9652 42.4442 37.3387 43.2478 36.4129 44.125C34.6936 45.7541 32.5485 46.8072 30.1142 47.1949C30.055 47.2044 29.9959 47.213 29.9365 47.2216C29.9137 47.2241 29.8405 47.2336 29.8318 47.2346C29.683 47.2514 29.5342 47.266 29.3849 47.2777C29.0452 47.3045 28.7049 47.3164 28.3639 47.318C25.9263 47.3073 23.6271 46.5935 21.5872 45.1718C19.7708 43.9059 18.2046 41.8958 17.4392 39.8328C16.562 37.469 16.4678 35.0164 17.1531 32.6416C17.4947 31.4583 17.9317 30.5216 18.6388 29.4576C18.9946 28.9222 19.2177 28.6355 19.6492 28.1604C20.0639 27.704 20.5123 27.2776 20.9895 26.8855C21.7288 26.278 23.0022 25.5196 23.8803 25.1655C24.4513 24.9353 25.0408 24.7486 25.6399 24.6046C26.309 24.4439 26.7922 24.3691 27.3991 24.3236C29.898 24.1369 32.2691 24.6852 34.3807 25.9434C34.9381 26.2756 35.4298 26.6228 35.8975 27.0165C34.8341 28.0667 33.7709 29.1171 32.7075 30.1674C30.3826 28.4561 27.1825 28.2165 24.6648 29.7236C22.0671 31.2785 20.756 34.2961 21.3302 37.2286C21.9723 40.507 25.026 42.867 28.3639 42.8972C31.3874 42.8699 34.0505 41 35.1149 38.2152C35.9561 36.0146 35.5292 33.4627 34.1377 31.5898C34.6535 31.0804 35.1691 30.5709 35.6849 30.0615C36.2314 29.5218 36.7778 28.9819 37.3243 28.4422C37.9823 29.22 38.5588 30.1238 39.0215 31.1242C39.1143 31.3249 39.181 31.4827 39.2888 31.7729C39.4011 32.0757 39.5016 32.383 39.5898 32.6935C39.6688 32.972 39.7381 33.2532 39.797 33.5364C39.8306 33.6971 39.8609 33.8583 39.8879 34.0201C39.9001 34.0922 39.9115 34.1646 39.9222 34.237L39.9262 34.2635ZM42.0991 23.7987C42.7507 24.5206 43.1824 25.079 43.7229 25.8987C44.2408 26.6841 44.7004 27.5071 45.0963 28.3592C45.3019 28.8019 45.4053 29.0527 45.5898 29.554C45.7574 30.0098 45.9076 30.4718 46.0393 30.939C46.1674 31.393 46.2785 31.8516 46.3719 32.3136C46.4191 32.5466 46.4616 32.7803 46.5 33.0148C46.5502 33.3228 46.5539 33.3496 46.5854 33.623C46.6991 34.6082 46.7352 35.602 46.6942 36.5928C46.6509 37.64 46.5559 38.4114 46.3499 39.3993C45.5851 43.0683 43.7467 46.3327 41.0258 48.9056C39.6774 50.1805 38.2559 51.1723 36.5311 52.0305C35.6424 52.4728 34.9453 52.7534 33.969 53.0612C33.042 53.3533 32.0926 53.5758 31.1317 53.7259C30.3568 53.8472 29.295 53.9226 28.3639 53.9252C26.3593 53.9194 24.5971 53.6523 22.6553 53.0281C21.698 52.7205 21.0303 52.4482 20.1488 52.0068C19.3039 51.5836 18.491 51.0988 17.7178 50.5586C17.0083 50.0627 16.3236 49.4999 15.6254 48.8325C15.2934 48.5151 14.9727 48.186 14.6643 47.8462C14.51 47.6762 14.3588 47.5036 14.2108 47.3283C14.1424 47.2474 14.0747 47.1658 14.0077 47.0838C13.9631 47.0291 13.9186 46.9742 13.8745 46.9189C13.8656 46.9077 13.8433 46.8793 13.8282 46.8602C13.2566 46.1225 12.7422 45.3401 12.2869 44.5276C11.815 43.6851 11.4589 42.9166 11.1568 42.1022C10.4663 40.2423 10.104 38.426 10.0314 36.5367C9.95389 34.5138 10.1626 32.7609 10.7182 30.8348C10.9794 29.9295 11.3037 29.0601 11.6543 28.3107C12.0524 27.46 12.5143 26.6382 13.0342 25.8543C13.5831 25.0271 14.0289 24.4556 14.6999 23.7204C15.3307 23.0291 16.012 22.3829 16.737 21.789C17.3717 21.269 18.1217 20.7452 18.9273 20.2666C19.3415 20.0205 19.7651 19.7897 20.1968 19.575C20.4054 19.4713 20.6158 19.3713 20.828 19.275C20.9263 19.2305 21.0247 19.1868 21.1236 19.144C21.1732 19.1225 21.2226 19.1013 21.2724 19.0804L21.2782 19.078C21.2848 19.0754 21.3 19.0693 21.3294 19.0576C22.2393 18.6918 23.1754 18.3925 24.1309 18.1668C25.1333 17.93 25.9223 17.8078 26.8852 17.7356C30.7753 17.4441 34.5401 18.3175 37.8465 20.2941C38.2586 20.5403 38.6614 20.8018 39.0537 21.0776C39.4609 21.3639 39.6434 21.5024 40.0319 21.8227C40.2358 21.9906 40.4353 22.1636 40.632 22.3396C40.6095 22.3619 40.587 22.3841 40.5645 22.4064C39.4862 23.4715 38.4079 24.5367 37.3296 25.6017C37.2639 25.546 37.1996 25.4888 37.1326 25.4344C34.9225 23.634 32.2429 22.5493 29.3849 22.3232C26.573 22.1007 23.6849 22.7905 21.2771 24.2397C16.375 27.1903 13.8433 32.9413 14.952 38.4953C16.0319 43.906 20.6569 48.3161 26.184 49.1449C26.9075 49.2534 27.632 49.3194 28.3639 49.3226C34.1046 49.2974 39.273 45.6819 41.2458 40.3657C42.9249 35.8409 41.8811 30.6415 38.7612 27.0227C39.862 25.9354 40.9628 24.848 42.0635 23.7606L42.0991 23.7987ZM55.5582 12.8122C55.1241 12.4078 54.5404 12.4095 53.9848 12.3623C53.1885 12.2948 52.3923 12.2273 51.5959 12.1597C51.4888 11.6324 51.3815 11.105 51.2745 10.5777C51.0821 9.63148 51.0505 8.34014 49.8958 8.04684C48.9263 7.80042 48.3758 8.57741 47.8259 9.18551C47.158 9.92398 46.49 10.6624 45.8222 11.4009C45.1913 12.0986 44.5603 12.7963 43.9292 13.4939C43.7852 13.6532 43.6388 13.8105 43.497 13.9717C42.9727 14.5691 42.7186 15.2313 42.7114 16.0232C42.7043 16.7904 42.6894 17.5574 42.6783 18.3246C42.6716 18.7926 42.6648 19.2605 42.6582 19.7283C42.6552 19.9316 42.6452 20.1353 42.6614 20.335C42.4632 20.5308 42.2648 20.7269 42.0665 20.9227C41.8434 20.7232 41.6172 20.527 41.3849 20.3377C38.1188 17.6759 34.1229 16.0641 29.8989 15.7353C25.717 15.4098 21.445 16.4181 17.8572 18.563C14.3734 20.6456 11.514 23.7749 9.83445 27.4443C8.06006 31.3214 7.55389 35.65 8.39895 39.8252C9.20451 43.8049 11.3024 47.5187 14.2671 50.3231C17.2423 53.1371 21.0881 55.0624 25.1668 55.676C26.2267 55.8354 27.2917 55.9269 28.3639 55.9299C32.5506 55.9179 36.7117 54.6397 40.1215 52.2283C43.4929 49.8442 46.0702 46.5285 47.5093 42.6855C48.982 38.7525 49.13 34.3319 47.9666 30.302C47.1176 27.3611 45.5718 24.616 43.4993 22.3425C43.7229 22.1216 43.9465 21.9007 44.1702 21.6798C44.7717 21.722 45.4373 21.5892 45.9815 21.5427C46.8524 21.468 47.7234 21.3934 48.5943 21.3186C48.6293 21.3157 48.6638 21.3112 48.698 21.3056C49.4617 21.2179 50.1234 20.9198 50.6493 20.347C50.8706 20.1061 51.0881 19.8617 51.3075 19.6192C52.1153 18.7261 52.9233 17.8329 53.7311 16.9398C54.3301 16.2776 54.9369 15.6217 55.5283 14.9529C56.0766 14.3329 56.2217 13.4302 55.5582 12.8122Z" />
</svg>
