<?xml version="1.0" standalone="no"?>
<!DOCTYPE svg PUBLIC "-//W3C//DTD SVG 1.0//EN" "http://www.w3.org/TR/2001/REC-SVG-20010904/DTD/svg10.dtd">
<svg xmlns="http://www.w3.org/2000/svg" xmlns:xlink="http://www.w3.org/1999/xlink" id="body_1" width="133" height="109">

<defs>
        <clipPath  id="1">

            <path clip-rule="evenodd" d="M0 0L100 0L100 82L0 82z" />        </clipPath>
                <clipPath  id="2">

                    <path clip-rule="evenodd" d="M6.5901637 69.409836L92.16393 69.409836C 95.477646 69.409836 98.16393 66.72354 98.16393 63.409836L98.16393 63.409836L98.16393 7.7377048C 98.16393 4.4239964 95.477646 1.7377049 92.16393 1.7377049L92.16393 1.7377049L6.5901637 1.7377049C 3.2764554 1.7377049 0.59016395 4.4239964 0.59016395 7.7377048L0.59016395 7.7377048L0.59016395 63.409836C 0.59016395 66.72354 3.2764554 69.409836 6.5901637 69.409836z" />                </clipPath>
                    <clipPath  id="3">

                        <path clip-rule="evenodd" d="M0 0L100 0L100 82L0 82z" />                    </clipPath>
                <clipPath  id="4">

                    <path clip-rule="evenodd" d="M50.163933 65.47541C 54.075195 65.47541 57.245903 68.64612 57.245903 72.55738C 57.245903 76.46864 54.075195 79.63934 50.163933 79.63934C 46.25267 79.63934 43.081966 76.46864 43.081966 72.55738C 43.081966 68.64612 46.25267 65.47541 50.163933 65.47541z" />                </clipPath>
                    <clipPath  id="5">

                        <path clip-rule="evenodd" d="M0 0L100 0L100 82L0 82z" />                    </clipPath>
                <clipPath  id="6">

                    <path clip-rule="evenodd" d="M40.77419 19.583803L58.841076 19.583803L40.77419 19.583803zM23.22111 26.413967L23.22111 50.921474C 23.223534 52.989033 24.899126 54.664627 26.966682 54.66705L26.966682 54.66705L47.13814 54.66705L47.1637 54.66705L47.189255 54.66705L52.42601 54.66705L52.45157 54.66705L52.477127 54.66705L72.64858 54.66705C 74.71636 54.664627 76.39173 52.989033 76.39416 50.921474L76.39416 50.921474L76.39416 26.413967C 76.39173 24.34619 74.71636 22.670816 72.64858 22.668392L72.64858 22.668392L60.425674 22.668392C 60.41157 22.668392 60.398354 22.6728 60.38337 22.6728C 60.36839 22.6728 60.355167 22.6728 60.34107 22.668392L60.34107 22.668392L39.27772 22.668392C 39.263622 22.668392 39.250404 22.6728 39.23542 22.6728C 39.22044 22.6728 39.20722 22.6728 39.19312 22.668392L39.19312 22.668392L26.966682 22.668392C 24.899126 22.670816 23.223534 24.34619 23.22111 26.413967L23.22111 26.413967L23.22111 26.413967zM16.264917 29.837862L20.136518 29.837862L20.136518 47.499344L16.264917 47.499344L16.264917 29.837862zM48.705994 62.88616C 49.43748 62.793404 50.177784 62.793404 50.90927 62.88616L50.90927 62.88616L50.90927 57.748997L48.705994 57.748997L48.705994 62.88616zM43.418125 72.290634C 43.418125 75.819405 46.278862 78.680145 49.807632 78.680145C 53.336624 78.680145 56.19714 75.819405 56.19714 72.290634C 56.19714 68.76186 53.336624 65.90113 49.807632 65.90113C 46.280403 65.90488 43.42209 68.763405 43.418125 72.290634L43.418125 72.290634L43.418125 72.290634zM79.478745 29.837862L83.35035 29.837862L83.35035 47.499344L79.478745 47.499344L79.478745 29.837862zM61.925667 19.583803L72.64858 19.583803C 76.41883 19.58821 79.47434 22.643717 79.478745 26.413967L79.478745 26.413967L79.478745 26.753271L84.89264 26.753271C 85.74421 26.753712 86.43494 27.444 86.43494 28.295567L86.43494 28.295567L86.43494 49.041637C 86.43494 49.893208 85.74421 50.583492 84.89264 50.583935L84.89264 50.583935L79.478745 50.583935L79.478745 50.921474C 79.473015 54.690845 76.41795 57.74459 72.64858 57.748997L72.64858 57.748997L53.993862 57.748997L53.993862 63.80449C 58.68773 66.11639 60.61868 71.79578 58.30656 76.48965C 55.99466 81.18373 50.31527 83.114685 45.621403 80.80256C 40.92754 78.49066 38.996586 72.81127 41.308487 68.11719C 42.231438 66.243515 43.747734 64.72744 45.621403 63.80449L45.621403 63.80449L45.621403 57.748997L26.966682 57.748997C 23.196213 57.74459 20.140926 54.689304 20.136518 50.91883L20.136518 50.91883L20.136518 50.58129L14.722623 50.58129C 13.871056 50.58085 13.180327 49.890564 13.180327 49.038994L13.180327 49.038994L13.180327 28.295567C 13.180327 27.444 13.871056 26.753712 14.722623 26.753271L14.722623 26.753271L20.136518 26.753271L20.136518 26.413967C 20.140926 22.643717 23.196213 19.58821 26.966682 19.583803L26.966682 19.583803L37.6896 19.583803L61.925667 19.583803z" />                </clipPath>
                    <clipPath  id="7">

                        <path clip-rule="evenodd" d="M13.180327 19.583803L86.43494 19.583803L86.43494 81.77967L13.180327 81.77967z" />                    </clipPath>
                <clipPath  id="8">

                    <path clip-rule="evenodd" d="M35.265995 38.448185C 33.197334 38.448185 31.52042 40.125103 31.52042 42.19376C 31.52042 44.26242 33.197334 45.939335 35.265995 45.939335C 37.334652 45.939335 39.011566 44.26242 39.011566 42.19376C 39.009144 40.126205 37.33355 38.45061 35.265995 38.448185M42.09704 42.195522C 42.095936 45.96776 39.037346 49.024807 35.265114 49.023926C 31.492878 49.023045 28.43583 45.96423 28.43671 42.191998C 28.437592 38.420868 31.494862 35.364037 35.265995 35.363598C 39.037346 35.36756 42.093735 38.42417 42.09704 42.195522" />                </clipPath>
                    <clipPath  id="9">

                        <path clip-rule="evenodd" d="M0 0L100 0L100 82L0 82z" />                    </clipPath>
                <clipPath  id="10">

                    <path clip-rule="evenodd" d="M64.34927 45.939335C 66.41793 45.939335 68.09485 44.26242 68.09485 42.19376C 68.09485 40.125103 66.41793 38.448185 64.34927 38.448185C 62.280613 38.448185 60.6037 40.125103 60.6037 42.19376C 60.60612 44.26132 62.281494 45.936913 64.34927 45.939335M64.34927 35.363598C 68.121506 35.363598 71.179436 38.421528 71.179436 42.19376C 71.179436 45.965996 68.121506 49.023926 64.34927 49.023926C 60.577038 49.023926 57.519108 45.965996 57.519108 42.19376C 57.523514 38.42351 60.57902 35.368004 64.34927 35.363598" />                </clipPath>
                    <clipPath  id="11">

                        <path clip-rule="evenodd" d="M0 0L100 0L100 82L0 82z" />                    </clipPath>
                <clipPath  id="12">

                    <path clip-rule="evenodd" d="M39.12173 28.775816C 39.122173 27.924248 39.812458 27.233961 40.664024 27.23352L40.664024 27.23352L58.95124 27.23352C 59.80303 27.23352 60.493534 27.924028 60.493534 28.775816C 60.493534 29.627604 59.80303 30.31811 58.95124 30.31811L58.95124 30.31811L40.664024 30.31811C 39.812458 30.317669 39.122173 29.627382 39.12173 28.775816" />                </clipPath>
                    <clipPath  id="13">

                        <path clip-rule="evenodd" d="M0 0L100 0L100 82L0 82z" />                    </clipPath>
                <clipPath  id="14">

                    <path clip-rule="evenodd" d="M30.99941 19.583803C 30.147623 19.583803 29.457115 20.274311 29.457115 21.126099C 29.457115 21.977886 30.147623 22.668392 30.99941 22.668392L30.99941 22.668392L73.17633 22.668392C 74.02812 22.668392 74.71863 21.977886 74.71863 21.126099C 74.71863 20.274311 30.99941 19.583803 30.99941 19.583803" />                </clipPath>
                    <clipPath  id="15">

                        <path clip-rule="evenodd" d="M0 0L100 0L100 82L0 82z" />                    </clipPath>
                <clipPath  id="16">

                    <path clip-rule="evenodd" d="M76.06752 20.504684C 76.06752 20.504684 74.93988 19.641 73.26297 19.612358C 71.58605 19.583715 61.642212 19.612358 61.642212 19.612358L61.642212 19.612358L59.605724 19.599798L56.37109 19.599798" />                </clipPath>
                    <clipPath  id="17">

                        <path clip-rule="evenodd" d="M0 0L100 0L100 82L0 82z" />                    </clipPath>
</defs>

<g transform="matrix(1.33 0 0 1.3292683 0 0)">
    <path d="M0 0L100 0L100 82L0 82z" stroke="none" fill="#FFFFFF" fill-rule="evenodd" />
	<g transform="matrix(1 0 0 -1 -0 82)" clip-path="url(#1)" >
		<g>
		</g>
		<g>
			<g clip-path="url(#2)" >
				<g clip-path="url(#3)" >
                    <path d="M6.590164 69.409836L92.16393 69.409836C 95.477646 69.409836 98.16393 66.72354 98.16393 63.409836L98.16393 63.409836L98.16393 7.737705C 98.16393 4.423996 95.477646 1.7377014 92.16393 1.7377014L92.16393 1.7377014L6.590164 1.7377014C 3.2764554 1.7377014 0.59016395 4.423996 0.59016395 7.737705L0.59016395 7.737705L0.59016395 63.409836C 0.59016395 66.72354 3.2764554 69.409836 6.590164 69.409836z" stroke="#1C2034" stroke-width="8" fill="none" />
				</g>
			</g>
			<g clip-path="url(#4)" >
				<g clip-path="url(#5)" >
                    <path d="M41.081966 81.63934L59.245903 81.63934L59.245903 63.47541L41.081966 63.47541z" stroke="none" fill="#FFFFFF" fill-rule="nonzero" />
				</g>
			</g>
			<g clip-path="url(#6)" >
				<g clip-path="url(#7)" >
                    <path d="M11.180327 83.77967L88.43494 83.77967L88.43494 17.583803L11.180327 17.583803z" stroke="none" fill="#1C2034" fill-rule="nonzero" />
				</g>
			</g>
			<g clip-path="url(#8)" >
				<g clip-path="url(#9)" >
                    <path d="M26.43583 51.024807L44.09704 51.024807L44.09704 33.363598L26.43583 33.363598z" stroke="none" fill="#1C2034" fill-rule="nonzero" />
				</g>
			</g>
			<g clip-path="url(#10)" >
				<g clip-path="url(#11)" >
                    <path d="M55.519108 51.023926L73.179436 51.023926L73.179436 33.363598L55.519108 33.363598z" stroke="none" fill="#1C2034" fill-rule="nonzero" />
				</g>
			</g>
			<g clip-path="url(#12)" >
				<g clip-path="url(#13)" >
                    <path d="M37.12173 32.31811L62.493534 32.31811L62.493534 25.23352L37.12173 25.23352z" stroke="none" fill="#1C2034" fill-rule="nonzero" />
				</g>
			</g>
			<g clip-path="url(#14)" >
				<g clip-path="url(#15)" >
                    <path d="M27.457115 24.668392L76.71863 24.668392L76.71863 17.583803L27.457115 17.583803z" stroke="none" fill="#000000" fill-rule="nonzero" />
				</g>
			</g>
			<g clip-path="url(#16)" >
				<g clip-path="url(#17)" >
                    <path d="M54.37109 22.504684L78.06752 22.504684L78.06752 17.583715L54.37109 17.583715z" stroke="none" fill="#000000" fill-rule="nonzero" />
				</g>
			</g>
		</g>
	</g>
</g>
</svg>