<svg width="64" height="64" viewBox="0 0 64 64" fill="none" xmlns="http://www.w3.org/2000/svg">
<path d="M25.808 16.2251C26.5049 16.9217 27.0276 17.8078 27.5867 18.6139C27.783 18.8971 28.0228 19.1816 28.1772 19.492C28.4965 20.1331 28.2694 20.7374 27.8635 21.2642C27.6038 21.6013 27.3149 22.1744 26.8534 22.2484C26.4436 22.314 25.9745 22.1423 25.562 22.1178C24.7738 22.0709 23.9633 22.2816 23.2938 22.6991C22.9853 22.8916 22.6972 23.1281 22.4541 23.3989C22.1789 23.7055 21.989 24.2418 21.5712 24.3666C21.2077 24.4751 20.6763 24.3176 20.3127 24.2713C19.908 24.2199 19.5002 24.1495 19.0927 24.1238C17.4548 24.0207 15.8434 25.0095 15.2052 26.5218C14.8778 27.2981 14.8232 28.1836 15.0656 28.9927C15.2046 29.456 15.4486 29.856 15.7041 30.2596C16.1836 31.0173 16.6248 31.9349 17.288 32.5528C18.3898 33.579 20.0112 33.7581 21.337 33.0767C22.1775 32.6445 23.057 31.9017 24.0173 32.4591C24.7592 32.8897 25.4889 33.342 26.2244 33.7834C26.3241 33.8432 26.4225 33.9062 26.5274 33.9567C26.9308 34.1509 27.3518 34.0687 27.7734 34.1669C28.4393 34.3218 28.9486 34.7485 29.3437 35.29C29.8368 35.9661 30.2935 36.6773 30.8311 37.3196C31.0903 37.6293 31.3545 37.9352 31.6162 38.243C31.7759 38.4309 31.9358 38.6191 32.0958 38.8072C32.1154 38.8302 32.1689 38.9104 32.2246 38.9839C32.0464 39.1207 31.8683 39.2574 31.6902 39.3941C31.2872 39.7036 30.884 40.013 30.481 40.3225C30.1763 40.5566 29.8586 40.7823 29.5826 41.0502C29.0064 41.6094 28.5989 42.3092 28.3547 43.0707C28.1019 43.8587 27.8669 44.6529 27.6231 45.4438C27.5242 45.7646 27.3331 45.9742 27.1203 46.2302C26.7607 46.663 26.3875 47.0867 26.1112 47.5803C25.8979 47.9614 25.7285 48.3755 25.6158 48.7974C25.6047 48.8396 25.5957 48.8871 25.5879 48.9379C25.5475 48.695 25.507 48.4522 25.4667 48.2093C25.3353 47.4212 25.2084 46.6321 25.0729 45.8446C24.9217 44.966 24.504 44.2572 23.9752 43.564C23.4158 42.8307 22.8566 42.0972 22.2974 41.3639C21.8965 40.8382 21.419 40.324 21.2339 39.6774C21.0031 38.8709 20.7858 38.0603 20.5617 37.2519C20.2951 36.2903 19.9796 35.3914 19.2381 34.6744C18.7212 34.1746 18.0855 33.8185 17.3957 33.6204C16.972 33.4989 16.6722 33.3046 16.3593 33.0101C15.9867 32.6595 15.6142 32.3089 15.2416 31.9584C15.1501 31.8722 15.0569 31.7874 14.9668 31.6997C14.6515 31.3931 14.4606 31.022 14.202 30.6725C13.2778 29.4233 11.8309 28.7751 10.3178 28.817C10.9942 24.17 13.1871 19.8308 16.5084 16.5089C17.9404 15.084 19.5489 13.8703 21.3045 12.8751C21.8889 13.3144 22.4733 13.7539 23.0577 14.1933C23.3061 14.3801 23.5532 14.5686 23.8027 14.7537C24.4767 15.2531 25.2084 15.6258 25.808 16.2251ZM32.3634 39.1219C32.3426 39.1206 32.3321 39.1127 32.3276 39.1012L32.3634 39.1219ZM47.4918 47.4916C42.7736 52.1849 36.1168 54.51 29.5013 53.7689C22.6348 52.9995 16.4154 48.873 12.9857 42.8821C10.8823 39.2079 9.9114 34.9837 10.1308 30.7639C11.1823 30.6505 12.1907 31.0681 12.7742 32.0011C13.2088 32.6961 13.7624 33.2155 14.3516 33.77C14.8912 34.2778 15.4238 34.8786 16.0997 35.2038C16.5611 35.4257 17.0791 35.4857 17.5159 35.7604C18.0089 36.0702 18.3534 36.5519 18.5188 37.1066C18.8297 38.1491 19.0856 39.2079 19.3907 40.2522C19.5945 40.9499 19.9814 41.4999 20.4121 42.0646C20.874 42.6703 21.336 43.2761 21.7978 43.8817C22.0927 44.2683 22.3953 44.65 22.6827 45.0419C23.0873 45.5941 23.1777 46.1876 23.2856 46.8349C23.4879 48.0489 23.6514 49.2766 23.8935 50.4834C24.1268 51.646 25.4383 52.1087 26.4025 51.4695C26.8639 51.1635 27.2101 50.6828 27.3325 50.1404C27.4867 49.456 27.5524 48.851 27.9638 48.2517C28.3655 47.6668 28.9616 47.1918 29.2689 46.5455C29.5324 45.9911 29.669 45.3589 29.849 44.7748C30.0509 44.1202 30.2005 43.3807 30.6017 42.8141C30.9809 42.279 31.5789 41.9049 32.0921 41.5109C32.5557 41.1551 33.022 40.8027 33.4828 40.4432C34.3666 39.7539 34.4481 38.6191 33.742 37.7681C32.9753 36.844 32.1925 35.9564 31.4922 34.9807C31.0354 34.3439 30.6077 33.6681 29.9911 33.1715C29.5141 32.7873 28.9689 32.4913 28.3761 32.3296C28.1134 32.2582 27.8401 32.2147 27.5686 32.1949C27.5217 32.1915 27.3579 32.1881 27.3405 32.2055L27.3096 32.1849C26.0527 31.5115 24.8216 30.3457 23.3285 30.3094C22.372 30.2861 21.6007 30.7469 20.7913 31.1804C20.4938 31.3397 20.2059 31.5165 19.8637 31.5594C19.3219 31.6271 18.7606 31.3871 18.4306 30.9536C18.0609 30.4679 17.7647 29.9087 17.4385 29.3935C17.3218 29.2091 17.1991 29.0272 17.0892 28.8384C16.7557 28.265 16.7674 27.5625 17.1239 27.0023C18.2223 25.2747 20.21 26.5292 21.7728 26.2927C22.3638 26.2034 22.9288 25.9039 23.3257 25.4548C23.7373 24.9895 23.9551 24.4738 24.5596 24.2085C25.3935 23.8424 26.2303 24.2689 27.0865 24.1585C28.1069 24.0268 28.6848 23.3507 29.2708 22.5903C29.88 21.7996 30.3327 20.9646 30.2545 19.9262C30.1906 19.0765 29.7962 18.4191 29.3277 17.7432C28.9387 17.182 28.5515 16.6196 28.1609 16.0597C27.5132 15.1312 26.7118 14.3344 25.754 13.7263C25.1298 13.3301 24.5485 12.9074 23.9585 12.4634C23.7147 12.2801 23.471 12.0967 23.2274 11.9134C28.794 9.50484 35.2617 9.48646 40.8253 11.9461C42.3753 12.6314 43.8481 13.4953 45.2025 14.5143C44.8282 15.0085 44.4328 15.4689 44.0296 15.9501C43.1802 16.9638 42.3948 18.0322 41.6852 19.1481C41.2907 19.7681 40.9256 20.4058 40.5548 21.0398C40.1607 21.714 39.8297 22.3915 40.0952 23.1953C40.4358 24.2267 41.4651 24.8051 42.4893 24.9354C43.4096 25.0522 44.2342 25.3743 44.8272 26.1234C45.5049 26.9793 45.6732 28.1752 45.2446 29.1812C45.0078 29.7368 44.6002 30.1379 44.1602 30.5285C43.1931 31.3872 42.226 32.2458 41.259 33.1046C40.9888 33.3444 40.7123 33.5787 40.4478 33.8247C39.7707 34.4543 39.5305 35.266 39.5305 36.1658C39.5305 37.0014 39.5368 37.789 40.1408 38.4495C40.5231 38.8675 41.0344 39.0965 41.3654 39.5764C41.6441 39.9811 41.8077 40.44 41.8657 40.9264C41.9459 41.5984 41.9162 42.2844 42.3334 42.8591C42.8012 43.5036 43.4971 43.7009 44.2556 43.7009C45.6545 43.7009 47.1768 43.8858 48.4293 43.1338C49.2462 42.6432 49.7449 41.9179 50.136 41.0715C50.5771 40.1175 51.4249 39.4175 52.492 39.3072C52.5501 39.3011 52.6081 39.2972 52.6663 39.2942C51.5722 42.3745 49.8035 45.1748 47.4918 47.4916ZM46.6941 15.7535C51.1219 19.8103 53.7962 25.5049 53.9043 31.5399C53.9395 33.4961 53.7183 35.4377 53.2516 37.3357C52.7527 37.3688 52.2515 37.3766 51.761 37.4829C50.8081 37.6891 49.9139 38.2062 49.2584 38.9276C48.9376 39.2805 48.6687 39.6778 48.4638 40.1083C48.3162 40.4189 48.1916 40.7491 47.9717 41.0178C47.4844 41.6134 46.8063 41.7716 46.0759 41.7716C45.4609 41.7716 44.8458 41.7716 44.2306 41.7716C44.1007 41.7716 43.9362 41.8024 43.869 41.6844C43.7628 41.4977 43.8073 41.0728 43.7847 40.8534C43.6906 39.9353 43.4028 39.0735 42.8428 38.3315C42.5347 37.9233 42.1706 37.5728 41.7527 37.2778C41.4168 37.0409 41.4606 36.8032 41.4606 36.4326C41.4606 36.1513 41.4158 35.8052 41.533 35.5428C41.6081 35.3745 41.7374 35.2597 41.8696 35.1411C42.2165 34.8293 42.5679 34.5227 42.9171 34.2135C43.8082 33.4246 44.6992 32.6356 45.5902 31.8467C46.8221 30.756 47.5627 29.2211 47.3951 27.5496C47.1963 25.5663 45.8209 23.8629 43.9203 23.2553C43.5316 23.1311 43.1339 23.0786 42.7311 23.0265C42.462 22.9919 41.8644 22.8431 41.9478 22.4821C41.9979 22.2648 42.2271 22.0042 42.339 21.8128C42.4791 21.5734 42.6189 21.3337 42.7591 21.0945C43.3146 20.1468 43.9204 19.2298 44.5799 18.3511C45.1925 17.5349 45.935 16.8129 46.5273 15.9862C46.5829 15.9087 46.6385 15.831 46.6941 15.7535ZM32 7.99999C18.7664 7.99999 8 18.7664 8 32C8 45.2336 18.7664 55.9997 32 55.9997C45.2338 55.9997 56 45.2336 56 32C56 18.7664 45.2338 7.99999 32 7.99999Z" />
</svg>
